<svg width="1280" height="932" viewBox="0 0 1280 932" fill="none" xmlns="http://www.w3.org/2000/svg">
<path d="M-309.609 731.901V618.608C-309.252 617.225 -309.252 615.773 -309.609 614.389V339.507C-310.024 329.626 -308.441 319.763 -304.955 310.508C-301.469 301.253 -296.151 292.796 -289.321 285.644C-275.507 269.683 -256.366 259.282 -235.457 256.378C-204.845 251.441 -174.323 245.785 -143.71 240.489L-14.1693 218.135L116.808 195.423L250.209 172.352C258.648 170.915 266.997 169.569 275.435 167.953C277.704 167.514 279.794 166.422 281.45 164.811C288.452 158.078 295.544 151.435 302.367 144.612C335.583 111.217 369.427 78.5397 402.822 45.324L442.322 6.90162C445.766 3.16032 450.531 0.906525 455.608 0.617567C463.274 -0.75496 471.176 0.27991 478.23 3.58003C481.664 5.59182 484.446 8.54905 486.245 12.0988C488.043 15.6485 488.783 19.6408 488.375 23.5992V517.346C488.719 535.664 481.815 553.378 469.163 566.63C457.847 580.285 442.468 589.971 425.265 594.28C412.876 597.422 400.129 599.218 387.561 601.642L253.8 627.137L140.239 648.772C92.3603 657.869 44.4818 666.846 -3.39659 675.703L-99.8118 693.658L-244.255 721.218C-259.337 724.091 -274.419 727.053 -289.141 730.195C-295.861 731.649 -302.741 732.222 -309.609 731.901Z" stroke="#221C3D" stroke-width="6" stroke-miterlimit="10"/>
<path d="M993.088 200.086V313.379C992.731 314.762 992.731 316.214 993.088 317.598C993.088 350.634 993.088 383.58 993.088 416.347V592.929C993.541 602.806 991.984 612.673 988.512 621.932C985.04 631.19 979.725 639.647 972.889 646.792C959.05 662.721 939.921 673.114 919.026 676.058C888.414 680.995 857.891 686.651 827.369 691.947C784.188 699.309 741.008 706.849 697.828 714.3L566.581 736.564L433.359 759.366C424.921 760.802 416.482 762.149 408.133 763.765C405.831 764.182 403.706 765.276 402.029 766.907C395.116 773.73 388.024 780.283 381.202 787.195C347.986 820.501 314.052 853.178 280.747 885.945L241.427 925.085C237.953 928.8 233.211 931.075 228.14 931.459C220.464 932.763 212.574 931.698 205.518 928.407C202.061 926.42 199.259 923.468 197.457 919.911C195.655 916.355 194.931 912.35 195.374 908.388V414.641C195.179 405.567 196.775 396.543 200.072 388.086C203.368 379.629 208.3 371.905 214.585 365.357C225.87 351.709 241.218 342.022 258.393 337.707C270.872 334.565 283.53 332.769 296.098 330.345L429.499 304.94L542.971 283.305L686.606 256.373L783.021 238.419L927.106 210.23C942.187 207.268 957.359 204.306 972.44 201.253C979.244 199.975 986.184 199.583 993.088 200.086Z" stroke="#221C3D" stroke-width="6" stroke-miterlimit="10"/>
<path d="M791.809 931.556V818.263C792.166 816.88 792.166 815.428 791.809 814.044V539.072C791.374 529.189 792.947 519.32 796.434 510.062C799.922 500.804 805.25 492.349 812.098 485.209C825.885 469.215 845.04 458.808 865.961 455.943C896.573 451.006 927.096 445.26 957.708 440.054L1087.16 417.7L1218.23 395.437C1262.66 387.717 1307.1 379.906 1351.63 372.366C1359.98 370.929 1368.42 369.583 1376.76 367.877C1379.07 367.53 1381.21 366.461 1382.87 364.825C1389.78 358.002 1396.96 351.449 1403.79 344.536C1437 311.231 1470.85 278.554 1504.15 245.787C1517.17 232.77 1530.36 219.933 1543.47 207.095C1546.93 203.366 1551.68 201.088 1556.76 200.721C1564.43 199.423 1572.32 200.488 1579.38 203.774C1582.81 205.785 1585.6 208.743 1587.39 212.292C1589.19 215.842 1589.93 219.834 1589.52 223.793V717.539C1589.87 735.858 1582.96 753.571 1570.31 766.824C1559 780.478 1543.62 790.164 1526.41 794.474C1514.03 797.526 1501.28 799.411 1488.71 801.835L1355.4 827.241L1241.84 848.786L1098.2 875.717L1001.88 893.672C953.638 902.829 905.491 911.985 857.433 921.142C842.351 924.105 827.269 927.067 812.098 930.119C805.424 931.461 798.606 931.944 791.809 931.556Z" stroke="#221C3D" stroke-width="6" stroke-miterlimit="10"/>
</svg>
