<svg width="559" height="136" viewBox="0 0 559 136" fill="none" xmlns="http://www.w3.org/2000/svg">
<g filter="url(#filter0_d_930_2766)">
<mask id="mask0_930_2766" style="mask-type:alpha" maskUnits="userSpaceOnUse" x="4" y="0" width="551" height="128">
<path d="M4 20C4 8.95431 12.9543 0 24 0H535C546.046 0 555 8.95431 555 20V128H4V20Z" fill="#7364BE"/>
</mask>
<g mask="url(#mask0_930_2766)">
<path d="M16.9532 6.14283C17.7036 6.04413 18.3079 6.67757 18.3079 7.43442V10.6374C18.3079 10.6948 18.2905 10.7516 18.2905 10.809V10.809C18.2905 10.8664 18.3079 10.9232 18.3079 10.9806C18.3079 12.3057 18.3079 13.626 18.3079 14.9416V22.1728C18.3369 22.5776 18.2345 22.982 18.0067 23.3614C17.779 23.7409 17.4306 24.0876 16.9827 24.3807C16.0761 25.0342 14.82 25.4593 13.4486 25.5767C11.4401 25.7828 9.43752 26.0147 7.43491 26.2318C4.59983 26.5335 1.76673 26.839 -1.06442 27.1481L-9.67567 28.0607C-12.5932 28.3772 -15.5088 28.6912 -18.4224 29.0028C-18.976 29.0617 -19.5297 29.1205 -20.0775 29.1868C-20.2294 29.2023 -20.3695 29.2473 -20.478 29.3156C-20.9315 29.5916 -21.3969 29.8639 -21.8445 30.1436C-24.0238 31.5125 -26.2502 32.852 -28.4354 34.2136C-29.2915 34.7435 -30.1495 35.271 -31.0094 35.796C-31.234 35.9511 -31.547 36.0449 -31.8811 36.0573C-32.3847 36.1124 -32.9032 36.0687 -33.3654 35.9322C-33.5917 35.8514 -33.7753 35.731 -33.8936 35.5858V35.5858C-34.1063 35.3247 -34.031 34.9458 -34.031 34.609V14.8754C-34.0436 14.504 -33.9388 14.1346 -33.7225 13.7886C-33.5062 13.4425 -33.1827 13.1265 -32.7705 12.8588C-32.0301 12.2993 -31.0231 11.9022 -29.8962 11.7253C-29.0775 11.5965 -28.247 11.5229 -27.4224 11.4236L-18.6698 10.3822L-11.2247 9.49527L-1.80067 8.39128L4.52522 7.65529L13.9787 6.49243C14.9683 6.37467 15.9637 6.25323 16.9532 6.14283V6.14283Z" stroke="#5845B1" stroke-miterlimit="10"/>
<path d="M16.9534 43.2968C17.7075 43.2083 18.3082 43.8467 18.3082 44.606V47.8042C18.3082 47.8629 18.2906 47.9209 18.2906 47.9795V47.9795C18.2906 48.0382 18.3082 48.0962 18.3082 48.1548C18.3082 49.4792 18.3082 50.7989 18.3082 52.114V59.3414C18.3378 59.7463 18.2357 60.1508 18.0079 60.5303C17.7801 60.9098 17.4314 61.2565 16.9829 61.5494C16.0766 62.2037 14.8207 62.63 13.4489 62.7491C11.4404 62.9515 9.43775 63.187 7.43513 63.4004L-1.06419 64.3168L-9.67544 65.2294C-12.6205 65.5459 -15.5066 65.866 -18.4221 66.1751C-18.9758 66.234 -19.5295 66.2892 -20.0773 66.3554C-20.2283 66.3725 -20.3677 66.4174 -20.4778 66.4842C-20.9313 66.7639 -21.3966 67.0326 -21.8443 67.3159C-24.0236 68.6812 -26.25 70.0207 -28.4352 71.3823C-29.2893 71.9159 -30.1492 72.4421 -31.0092 72.9684C-31.2371 73.1206 -31.5482 73.2139 -31.8809 73.2296C-32.3845 73.2831 -32.9022 73.2394 -33.3652 73.1045C-33.592 73.0231 -33.7758 72.902 -33.894 72.7563V72.7563C-34.1069 72.4939 -34.0308 72.114 -34.0308 71.7761V52.044C-34.0436 51.6721 -33.9388 51.3022 -33.7225 50.9555C-33.5062 50.6088 -33.1827 50.2922 -32.7703 50.0237C-32.0299 49.4643 -31.0228 49.0672 -29.896 48.8903C-29.0772 48.7652 -28.2467 48.6879 -27.4221 48.5886L-18.6695 47.5471L-11.2245 46.6639L-1.80045 45.5599L4.52545 44.8239L13.979 43.6648C14.9685 43.5433 15.9639 43.4219 16.9534 43.2968V43.2968Z" stroke="#5845B1" stroke-miterlimit="10"/>
<path d="M16.9532 80.4838C17.703 80.3883 18.3079 81.0193 18.3079 81.7752V84.9784C18.3079 85.0358 18.2905 85.0926 18.2905 85.15V85.15C18.2905 85.2074 18.3079 85.2642 18.3079 85.3216C18.3079 86.6466 18.3079 87.9669 18.3079 89.2826V96.51C18.3373 96.9149 18.2349 97.3193 18.0072 97.6988C17.7794 98.0783 17.4309 98.425 16.9826 98.718C16.076 99.3715 14.8199 99.7966 13.4486 99.914C11.4401 100.12 9.4375 100.352 7.43488 100.569C4.59981 100.871 1.76671 101.176 -1.06444 101.485L-9.67569 102.398L-18.4165 103.347C-18.9702 103.406 -19.5238 103.461 -20.0716 103.528C-20.2235 103.543 -20.3637 103.588 -20.4721 103.657C-20.9257 103.933 -21.391 104.205 -21.8386 104.485C-24.0179 105.853 -26.2444 107.193 -28.4296 108.555C-29.2856 109.084 -30.1436 109.612 -31.0035 110.137C-31.2281 110.292 -31.5411 110.386 -31.8753 110.398C-32.3788 110.453 -32.8974 110.41 -33.3595 110.273C-33.5859 110.192 -33.7695 110.072 -33.8877 109.927V109.927C-34.1005 109.666 -34.0251 109.287 -34.0251 108.95V89.2163C-34.0378 88.8449 -33.933 88.4756 -33.7167 88.1295C-33.5004 87.7835 -33.1768 87.4675 -32.7647 87.1997C-32.0242 86.6403 -31.0172 86.2432 -29.8903 86.0663C-29.0716 85.9375 -28.2411 85.8639 -27.4165 85.7645L-18.6698 84.7341L-11.2248 83.8473L-1.8007 82.7433L4.5252 82.0073L13.9787 80.8334C14.9682 80.7156 15.9637 80.5942 16.9532 80.4838V80.4838Z" stroke="#5845B1" stroke-miterlimit="10"/>
<path d="M16.9711 117.682C17.7054 117.569 18.3082 118.185 18.3082 118.928V122.142C18.3082 122.2 18.2906 122.258 18.2906 122.317V122.317C18.2906 122.375 18.3082 122.434 18.3082 122.492C18.3082 123.817 18.3082 125.136 18.3082 126.451V133.675C18.3378 134.08 18.2357 134.484 18.0079 134.864C17.7801 135.243 17.4314 135.59 16.9829 135.883C16.0766 136.537 14.8207 136.964 13.4489 137.083C11.4404 137.285 9.43775 137.521 7.43513 137.734L-1.06419 138.65L-9.67544 139.563C-12.6205 139.879 -15.5066 140.2 -18.4221 140.509C-18.9758 140.568 -19.5295 140.623 -20.0773 140.693C-20.2286 140.707 -20.3688 140.751 -20.4778 140.818C-20.9313 141.098 -21.3966 141.366 -21.8443 141.65C-24.0236 143.015 -26.25 144.354 -28.4352 145.716C-29.2893 146.25 -30.1492 146.776 -31.0092 147.302C-31.2371 147.454 -31.5482 147.548 -31.8809 147.563C-32.3845 147.617 -32.9022 147.573 -33.3652 147.438C-33.592 147.357 -33.7758 147.236 -33.894 147.09V147.09C-34.1069 146.828 -34.0308 146.448 -34.0308 146.11V126.378C-34.0436 126.006 -33.9388 125.636 -33.7225 125.289C-33.5062 124.942 -33.1827 124.626 -32.7703 124.357C-32.0299 123.798 -31.0228 123.401 -29.896 123.224C-29.0772 123.099 -28.2467 123.022 -27.4221 122.922L-18.6695 121.899L-11.2245 121.016L-1.80045 119.912L4.52545 119.176C7.6668 118.801 10.8239 118.425 13.9966 118.05C14.9862 117.928 15.9816 117.807 16.9711 117.682V117.682Z" stroke="#5845B1" stroke-miterlimit="10"/>
<path d="M89.2178 -22.8032C89.9474 -22.9204 90.549 -22.3085 90.549 -21.5696V-18.3509C90.549 -18.2923 90.5314 -18.2342 90.5314 -18.1756V-18.1756C90.5314 -18.117 90.549 -18.059 90.549 -18.0003V-6.82106C90.5776 -6.41591 90.4743 -6.01136 90.2455 -5.63185C90.0167 -5.25234 89.6671 -4.90577 89.2178 -4.61308C88.3115 -3.95879 87.0556 -3.53248 85.6838 -3.41343C83.6753 -3.21103 81.6727 -2.97918 79.6642 -2.76207C76.8311 -2.46031 74.0039 -2.1512 71.1708 -1.84576L62.5713 -0.914715L53.8187 0.0310392C53.2709 0.0899187 52.7172 0.145115 52.1695 0.211354C52.0176 0.226849 51.8774 0.271918 51.769 0.340144C51.3154 0.616142 50.8442 0.888461 50.3966 1.16814C48.2173 2.53709 45.9967 3.87659 43.8115 5.23818C42.9574 5.7681 42.0916 6.29433 41.2317 6.82425C41.0057 6.97761 40.6931 7.07 40.36 7.08185C39.8564 7.13871 39.337 7.09494 38.8756 6.95674C38.6509 6.87488 38.4686 6.75431 38.3505 6.60943V6.60943C38.138 6.34854 38.2101 5.97069 38.2101 5.63417V-14.1C38.1875 -14.851 38.6405 -15.5771 39.4705 -16.1203C40.2131 -16.6801 41.2221 -17.0771 42.3508 -17.2538C43.1636 -17.3826 44 -17.4562 44.8246 -17.5555L53.5713 -18.597L61.0222 -19.4838L70.4463 -20.5878L76.7663 -21.3238L86.2434 -22.4536C87.2329 -22.5713 88.2224 -22.6928 89.2178 -22.8032V-22.8032Z" stroke="#5845B1" stroke-miterlimit="10"/>
<path d="M6.43368 35.9543C5.70567 36.0755 5.10252 35.4655 5.10252 34.7275V31.5038C5.10252 31.4464 5.11993 31.3896 5.11993 31.3322V31.3322C5.11993 31.2748 5.10252 31.218 5.10252 31.1606V19.9648C5.07326 19.5596 5.17618 19.1549 5.40502 18.7754C5.63385 18.3958 5.98383 18.0492 6.43368 17.7568C7.33655 17.0998 8.59418 16.6729 9.9677 16.5571C11.9762 16.3511 13.9788 16.1192 15.9873 15.9058L24.4808 14.9858L33.0802 14.0548C35.9958 13.742 38.9114 13.4218 41.8328 13.1127C42.3806 13.0538 42.9343 12.9949 43.482 12.9287C43.6339 12.9132 43.7741 12.8681 43.8826 12.7999C44.3361 12.5239 44.8073 12.2516 45.2549 11.9719C47.4343 10.603 49.6548 9.26343 51.84 7.90185C52.6941 7.37193 53.5599 6.8457 54.4199 6.31946C54.6437 6.16377 54.9571 6.06983 55.2916 6.0582C55.7952 6.00333 56.3136 6.04701 56.7759 6.18331C57.0007 6.26517 57.183 6.38574 57.301 6.53062V6.53062C57.5136 6.79151 57.4414 7.16936 57.4414 7.50588V27.2401C57.4644 27.99 57.0112 28.715 56.181 29.2567C55.4385 29.8164 54.4294 30.2135 53.3007 30.3901C52.4879 30.5189 51.6515 30.5925 50.8269 30.6919L42.0802 31.7333L34.6293 32.6202L25.2052 33.7242L18.8852 34.4602C15.7203 34.8355 12.5613 35.2109 9.40815 35.5863C8.41862 35.704 7.4291 35.8255 6.43368 35.9543V35.9543Z" stroke="#5845B1" stroke-miterlimit="10"/>
<path d="M89.218 14.3566C89.9503 14.2424 90.5492 14.8595 90.5492 15.6005V18.8254C90.5492 18.8828 90.5316 18.9396 90.5316 18.997V18.997C90.5316 19.0545 90.5492 19.1113 90.5492 19.1687V30.3497C90.5778 30.7549 90.4745 31.1594 90.2457 31.5389C90.017 31.9185 89.6673 32.265 89.218 32.5577C88.3134 33.2133 87.0567 33.6399 85.684 33.7574C83.6755 33.9634 81.6729 34.1953 79.6644 34.4087L71.171 35.3287L62.5715 36.2598C59.6559 36.5726 56.7404 36.8927 53.8189 37.2018C53.2711 37.2607 52.7175 37.3159 52.1697 37.3858C52.0192 37.4017 51.8797 37.4452 51.7692 37.5109C51.3156 37.7906 50.8444 38.0629 50.3968 38.3426C48.2175 39.7079 45.9969 41.0511 43.8117 42.4127C42.9577 42.9426 42.0918 43.4688 41.2319 43.995C41.0065 44.1495 40.694 44.2431 40.3602 44.2563C39.8565 44.3095 39.3389 44.2659 38.8759 44.1312C38.6506 44.0487 38.4681 43.9275 38.35 43.782V43.782C38.1374 43.5199 38.2103 43.141 38.2103 42.8034V23.0708C38.1873 22.3209 38.6405 21.5958 39.4708 21.0541C40.2146 20.4946 41.2228 20.0965 42.351 19.917C43.1638 19.7919 44.0002 19.7146 44.8248 19.6189L53.5715 18.5775L61.0224 17.6906L70.4465 16.5867L76.7665 15.8507C79.9314 15.4753 83.0904 15.0999 86.2436 14.7246C87.2331 14.6068 88.2226 14.4817 89.218 14.3566V14.3566Z" stroke="#5845B1" stroke-miterlimit="10"/>
<path d="M6.43347 73.1269C5.70469 73.2461 5.10231 72.6352 5.10231 71.8967V68.6783C5.10231 68.6196 5.11989 68.5616 5.11989 68.503V68.503C5.11989 68.4443 5.10231 68.3863 5.10231 68.3277V57.1337C5.07374 56.7286 5.17697 56.324 5.40577 55.9445C5.63457 55.565 5.98418 55.2184 6.43347 54.9257C7.3398 54.2714 8.59569 53.8451 9.96749 53.7261C11.976 53.5237 13.9786 53.2918 15.9871 53.0747L24.4805 52.1584L33.08 51.2274L41.8326 50.2816C42.3804 50.2227 42.9341 50.1675 43.4818 50.1013C43.6329 50.0842 43.7723 50.0394 43.8823 49.9725C44.3359 49.6928 44.8071 49.4242 45.2547 49.1408C47.4341 47.7756 49.6546 46.436 51.8398 45.0745C52.6939 44.5409 53.5597 44.0183 54.4196 43.4884C54.6468 43.3355 54.9584 43.2422 55.2914 43.2271C55.795 43.1739 56.3126 43.2175 56.7757 43.3522C57.0009 43.4347 57.1835 43.5559 57.3015 43.7014V43.7014C57.5141 43.9636 57.4412 44.3425 57.4412 44.6801V64.4127C57.4638 65.1636 57.0108 65.8897 56.1808 66.433C55.4382 66.9927 54.4292 67.3898 53.3005 67.5664C52.4877 67.6952 51.6513 67.7688 50.8267 67.8682L42.08 68.9096L34.6291 69.7928L25.205 70.8968L18.885 71.6328C15.7201 72.0082 12.5611 72.3835 9.40794 72.7589C8.41841 72.8803 7.42888 73.0017 6.43347 73.1269V73.1269Z" stroke="#5845B1" stroke-miterlimit="10"/>
<path d="M89.2182 51.5174C89.9515 51.4104 90.5494 52.0271 90.5494 52.7681V55.9881C90.5494 56.0467 90.5318 56.1048 90.5318 56.1634V56.1634C90.5318 56.222 90.5494 56.28 90.5494 56.3387V67.5179C90.5779 67.9231 90.4747 68.3277 90.2459 68.7072C90.0171 69.0867 89.6675 69.4332 89.2182 69.7259C88.3119 70.3802 87.056 70.8065 85.6842 70.9256C83.6757 71.128 81.6731 71.3598 79.6646 71.5769C76.8314 71.8787 74.0042 72.1878 71.1711 72.4933L62.5717 73.4243L53.8191 74.3701C53.2713 74.4289 52.7176 74.4841 52.1698 74.5504C52.0179 74.5659 51.8778 74.6109 51.7693 74.6792C51.3158 74.9552 50.8446 75.2275 50.3969 75.5072C48.2176 76.8761 45.9971 78.2156 43.8119 79.5772C42.9578 80.1071 42.092 80.6333 41.232 81.1633C41.0061 81.3166 40.6934 81.409 40.3603 81.4209C39.8568 81.4777 39.3374 81.4339 38.876 81.2957C38.6507 81.2142 38.468 81.0937 38.3499 80.9488V80.9488C38.1373 80.6878 38.2104 80.3096 38.2104 79.973V60.239C38.1878 59.488 38.6409 58.7619 39.4709 58.2187C40.2134 57.659 41.2225 57.2619 42.3511 57.0852C43.164 56.9564 44.0003 56.8828 44.825 56.7835L53.5717 55.742L61.0226 54.8552L70.4466 53.7512L76.7667 53.0152L86.2437 51.8854C87.2333 51.7677 88.2228 51.6462 89.2182 51.5174V51.5174Z" stroke="#5845B1" stroke-miterlimit="10"/>
<path d="M6.43368 110.309C5.70266 110.422 5.10252 109.808 5.10252 109.068V105.844C5.10252 105.786 5.11993 105.729 5.11993 105.672V105.672C5.11993 105.615 5.10252 105.558 5.10252 105.5V94.3193C5.07326 93.9141 5.17618 93.5094 5.40502 93.1298C5.63385 92.7503 5.98383 92.4037 6.43368 92.1113C7.33829 91.4557 8.59504 91.029 9.9677 90.9116C11.9762 90.7055 13.9788 90.4737 15.9873 90.2603L24.4808 89.3403L33.0802 88.4092C35.9958 88.0964 38.9114 87.7763 41.8328 87.4672C42.3806 87.4083 42.9343 87.3494 43.482 87.2832C43.6325 87.2673 43.772 87.2238 43.8826 87.1581C44.3361 86.8784 44.8073 86.6061 45.2549 86.3264C47.4343 84.9574 49.6548 83.6179 51.84 82.2563C52.6941 81.7264 53.5599 81.2002 54.4199 80.6739C54.6437 80.5182 54.9571 80.4243 55.2916 80.4127C55.7952 80.3595 56.3128 80.4031 56.7759 80.5378C57.0007 80.6196 57.183 80.7402 57.301 80.8851V80.8851C57.5136 81.146 57.4414 81.5238 57.4414 81.8603V101.595C57.4644 102.344 57.0112 103.069 56.181 103.611C55.4385 104.171 54.4294 104.568 53.3007 104.745C52.4879 104.873 51.6515 104.947 50.8269 105.046L42.0802 106.088L34.6293 106.975L25.2052 108.079L18.8852 108.815C15.7203 109.19 12.5613 109.565 9.40815 109.941C8.41862 110.058 7.4291 110.18 6.43368 110.309V110.309Z" stroke="#5845B1" stroke-miterlimit="10"/>
<path d="M89.2181 88.7081C89.9461 88.5869 90.5492 89.1968 90.5492 89.9348V93.1585C90.5492 93.2159 90.5318 93.2727 90.5318 93.3301V93.3301C90.5318 93.3875 90.5492 93.4443 90.5492 93.5017V104.683C90.5785 105.088 90.4756 105.493 90.2467 105.872C90.0179 106.252 89.6679 106.598 89.2181 106.891C88.3134 107.546 87.0567 107.973 85.684 108.09C83.6755 108.297 81.6729 108.528 79.6644 108.742L71.171 109.662L62.5715 110.593C59.6559 110.906 56.7404 111.226 53.8189 111.535C53.2711 111.594 52.7175 111.649 52.1697 111.719C52.0192 111.735 51.8797 111.778 51.7692 111.844C51.3156 112.124 50.8444 112.396 50.3968 112.676C48.2175 114.041 45.9969 115.384 43.8117 116.746C42.9577 117.276 42.0918 117.802 41.2319 118.328C41.008 118.484 40.6946 118.578 40.3602 118.589C39.8565 118.643 39.3389 118.599 38.8759 118.464C38.6506 118.382 38.4681 118.261 38.35 118.115V118.115C38.1374 117.853 38.2103 117.474 38.2103 117.136V97.4038C38.1873 96.6539 38.6405 95.9289 39.4708 95.3872C40.2146 94.8277 41.2228 94.4296 42.351 94.2501C43.1638 94.125 44.0002 94.0477 44.8248 93.952L53.5715 92.9106L61.0224 92.0237L70.4465 90.9197L76.7665 90.1837C79.9314 89.8084 83.0905 89.433 86.2436 89.0577C87.2331 88.9399 88.2226 88.8148 89.2181 88.7081V88.7081Z" stroke="#5845B1" stroke-miterlimit="10"/>
<path d="M6.43347 147.486C5.70095 147.595 5.10231 146.979 5.10231 146.239V143.019C5.10231 142.96 5.11989 142.902 5.11989 142.844V142.844C5.11989 142.785 5.10231 142.727 5.10231 142.668V131.489C5.07374 131.084 5.17697 130.679 5.40577 130.3C5.63457 129.92 5.98418 129.574 6.43347 129.281C7.3398 128.627 8.59569 128.201 9.96749 128.082C11.976 127.879 13.9786 127.647 15.9871 127.43C18.8202 127.128 21.6474 126.819 24.4805 126.514L33.08 125.583L41.8326 124.637C42.3804 124.578 42.9341 124.523 43.4818 124.457C43.6329 124.44 43.7723 124.395 43.8823 124.328C44.3359 124.048 44.8071 123.78 45.2547 123.496C47.4341 122.131 49.6546 120.792 51.8398 119.43C52.6939 118.9 53.5597 118.374 54.4196 117.844C54.6468 117.691 54.9584 117.598 55.2914 117.583C55.795 117.529 56.3126 117.573 56.7757 117.708C57.0009 117.79 57.1835 117.911 57.3015 118.057V118.057C57.5141 118.319 57.4412 118.698 57.4412 119.036V138.768C57.4638 139.519 57.0108 140.245 56.1808 140.788C55.4382 141.348 54.4292 141.745 53.3005 141.922C52.4877 142.051 51.6513 142.124 50.8267 142.224L42.08 143.265L34.6291 144.152L25.205 145.256L18.885 145.992C15.7201 146.367 12.5611 146.743 9.40794 147.118C8.41841 147.239 7.42888 147.361 6.43347 147.486V147.486Z" stroke="#5845B1" stroke-miterlimit="10"/>
<path d="M89.218 125.875C89.9476 125.757 90.5492 126.369 90.5492 127.108V130.327C90.5492 130.385 90.5316 130.443 90.5316 130.502V130.502C90.5316 130.561 90.5492 130.619 90.5492 130.677V141.857C90.5778 142.262 90.4745 142.666 90.2457 143.046C90.017 143.425 89.6673 143.772 89.218 144.065C88.3117 144.719 87.0558 145.145 85.684 145.264C83.6755 145.467 81.6729 145.699 79.6644 145.916C76.8313 146.217 74.0041 146.527 71.171 146.832L62.5715 147.763L53.8189 148.709C53.2711 148.768 52.7175 148.823 52.1697 148.889C52.0186 148.906 51.8792 148.951 51.7692 149.018C51.3156 149.294 50.8444 149.566 50.3968 149.846C48.2175 151.215 45.9969 152.554 43.8117 153.916C42.9577 154.446 42.0918 154.972 41.2319 155.502C41.0059 155.655 40.6933 155.748 40.3602 155.76C39.8572 155.816 39.3387 155.773 38.8759 155.638C38.6506 155.556 38.4681 155.434 38.35 155.289V155.289C38.1374 155.027 38.2103 154.648 38.2103 154.31V134.578C38.1877 133.827 38.6407 133.101 39.4708 132.557C40.2133 131.998 41.2223 131.601 42.351 131.424C43.1638 131.295 44.0002 131.222 44.8248 131.122L53.5715 130.081L61.0224 129.194L70.4465 128.09L76.7665 127.354L86.2436 126.224C87.2331 126.106 88.2226 125.985 89.218 125.875V125.875Z" stroke="#5845B1" stroke-miterlimit="10"/>
<path d="M73.0311 27.7909C72.2989 27.9051 71.7 27.2881 71.7 26.547V23.3222C71.7 23.2647 71.7176 23.2079 71.7176 23.1505V23.1505C71.7176 23.093 71.7 23.0362 71.7 22.9788V11.7978C71.6714 11.3926 71.7746 10.9881 72.0034 10.6086C72.2322 10.2291 72.5818 9.88249 73.0311 9.5898C73.9357 8.93417 75.1925 8.50755 76.5651 8.39012C78.5737 8.18773 80.5763 7.95222 82.5848 7.73878L91.0782 6.82248L99.6777 5.88775C102.623 5.57495 105.509 5.2548 108.43 4.94568C108.978 4.8868 109.532 4.8316 110.079 4.76168C110.231 4.74745 110.371 4.70366 110.48 4.63657C110.934 4.3569 111.405 4.08826 111.852 3.8049C114.032 2.43963 116.252 1.09644 118.443 -0.265145C119.291 -0.79506 120.157 -1.32131 121.017 -1.84755C121.244 -2.00042 121.556 -2.09377 121.889 -2.10881C122.393 -2.16202 122.91 -2.1184 123.373 -1.98371C123.599 -1.90124 123.781 -1.78 123.899 -1.63449V-1.63449C124.112 -1.37233 124.039 -0.993441 124.039 -0.655906V19.0768C124.062 19.8266 123.609 20.5517 122.778 21.0934C122.036 21.6541 121.027 22.0524 119.898 22.2305C119.085 22.3556 118.249 22.4329 117.424 22.5322L108.678 23.57L101.227 24.4569L91.8027 25.5609L85.4827 26.2969C82.3177 26.6722 79.1587 27.0476 76.0056 27.4229C75.0161 27.5407 74.0265 27.6658 73.0311 27.7909V27.7909Z" stroke="#5845B1" stroke-miterlimit="10"/>
<path d="M155.81 6.17925C156.542 6.06185 157.147 6.67652 157.147 7.4187V10.6032C157.147 10.682 157.11 10.7595 157.109 10.8382V10.8382C157.109 10.8759 157.117 10.9125 157.117 10.9502V22.1724C157.145 22.5775 157.042 22.9819 156.813 23.3614C156.584 23.7408 156.235 24.0874 155.786 24.3804C154.881 25.0352 153.624 25.4606 152.252 25.5764C150.244 25.7824 148.241 26.0143 146.238 26.2314C143.399 26.5332 140.572 26.8386 137.739 27.1477L129.163 28.0604C126.246 28.3768 123.328 28.6909 120.41 29.0024C119.863 29.0613 119.309 29.1202 118.761 29.1864C118.609 29.2019 118.469 29.247 118.361 29.3152C117.907 29.5912 117.442 29.8635 116.988 30.1432C114.809 31.5122 112.589 32.8517 110.403 34.2132C109.549 34.7432 108.683 35.2694 107.823 35.7957C107.6 35.9513 107.286 36.0453 106.952 36.0569C106.448 36.1118 105.93 36.0681 105.467 35.9318C105.243 35.8499 105.06 35.7294 104.942 35.5845V35.5845C104.73 35.3236 104.802 34.9458 104.802 34.6092V14.875C104.779 14.1251 105.232 13.4001 106.062 12.8584C106.805 12.2987 107.814 11.9016 108.943 11.725C109.755 11.5962 110.592 11.5226 111.416 11.4232L120.163 10.3818L127.614 9.4949L137.038 8.39091L143.358 7.65492C146.523 7.27956 149.682 6.90421 152.835 6.52885C153.825 6.41109 154.814 6.28965 155.81 6.17925V6.17925Z" stroke="#5845B1" stroke-miterlimit="10"/>
<path d="M73.0311 64.9834C72.2941 65.0803 71.7 64.4587 71.7 63.7154V60.4943C71.7 60.4357 71.7175 60.3777 71.7175 60.319V60.319C71.7175 60.2604 71.7 60.2024 71.7 60.1437V48.9682C71.6714 48.563 71.7746 48.1585 72.0034 47.779C72.2322 47.3994 72.5818 47.0529 73.0311 46.7602C73.9375 46.1059 75.1933 45.6796 76.5651 45.5605C78.5737 45.3581 80.5763 45.1263 82.5848 44.9092C85.4179 44.6074 88.251 44.2983 91.0782 43.9928L99.6777 43.0618L108.43 42.1161C108.978 42.0572 109.532 42.002 110.079 41.9357C110.231 41.9203 110.372 41.8752 110.48 41.8069C110.934 41.5309 111.405 41.2586 111.852 40.9789C114.032 39.61 116.252 38.2705 118.443 36.9089C119.291 36.379 120.157 35.8528 121.017 35.3265C121.241 35.1708 121.555 35.0769 121.889 35.0653C122.393 35.0084 122.912 35.0522 123.373 35.1904C123.598 35.2722 123.78 35.3928 123.898 35.5377V35.5377C124.111 35.7986 124.039 36.1764 124.039 36.5129V56.2472C124.061 56.9981 123.608 57.7242 122.778 58.2675C122.036 58.8272 121.027 59.2242 119.898 59.4009C119.085 59.5297 118.249 59.6033 117.424 59.7026L108.678 60.7441L101.227 61.6309L91.8027 62.7349L85.4827 63.4893C82.3177 63.8598 79.1587 64.2351 76.0056 64.6154C75.0161 64.7332 74.0265 64.8546 73.0311 64.9834V64.9834Z" stroke="#5845B1" stroke-miterlimit="10"/>
<path d="M155.81 43.3306C156.547 43.2254 157.147 43.8458 157.147 44.5906V47.7707C157.147 47.851 157.11 47.93 157.11 48.0103V48.0103C157.109 48.0489 157.117 48.0863 157.117 48.1249V59.3421C157.146 59.7473 157.043 60.1518 156.814 60.5314C156.585 60.9109 156.236 61.2574 155.786 61.5501C154.882 62.2058 153.625 62.6324 152.252 62.7498C150.244 62.9522 148.241 63.1877 146.239 63.4012L137.739 64.3175L129.163 65.2301C126.248 65.5466 123.332 65.8667 120.411 66.1759C119.863 66.2347 119.309 66.2899 118.761 66.3562C118.61 66.3733 118.471 66.4181 118.361 66.485C117.907 66.7646 117.442 67.0333 116.989 67.3166C114.809 68.6819 112.589 70.0214 110.404 71.383C109.549 71.9166 108.684 72.4428 107.824 72.9691C107.596 73.122 107.285 73.2153 106.952 73.2303C106.448 73.2836 105.931 73.2399 105.468 73.1052C105.242 73.0228 105.06 72.9015 104.942 72.756V72.756C104.729 72.4939 104.802 72.115 104.802 71.7774V52.0448C104.779 51.2938 105.233 50.5677 106.063 50.0245C106.805 49.4648 107.814 49.0677 108.943 48.891C109.756 48.7659 110.592 48.6887 111.417 48.5893L120.163 47.5479L127.614 46.6647L137.038 45.5607L143.358 44.8247C146.523 44.4493 149.682 44.074 152.835 43.6986C153.825 43.5772 154.814 43.4557 155.81 43.3306V43.3306Z" stroke="#5845B1" stroke-miterlimit="10"/>
<path d="M73.0311 102.148C72.2956 102.249 71.7 101.63 71.7 100.887V97.6664C71.7 97.6079 71.7165 97.5499 71.7165 97.4914V97.4914C71.7165 97.4328 71.7 97.3748 71.7 97.3163V86.1368C71.6714 85.7317 71.7746 85.3271 72.0034 84.9476C72.2322 84.5681 72.5818 84.2215 73.0311 83.9288C73.9357 83.2732 75.1925 82.8466 76.5651 82.7292C78.5737 82.5268 80.5763 82.2913 82.5848 82.0778L91.0782 81.1615L99.6777 80.2305C102.623 79.914 105.509 79.5938 108.43 79.2847C108.978 79.2258 109.532 79.1706 110.079 79.1007C110.231 79.0865 110.371 79.0427 110.48 78.9756C110.934 78.6959 111.405 78.4273 111.852 78.1439C114.032 76.7787 116.252 75.4355 118.443 74.096C119.291 73.5624 120.157 73.0361 121.017 72.5099C121.244 72.357 121.556 72.2636 121.889 72.2486C122.393 72.1954 122.91 72.239 123.373 72.3737C123.599 72.4562 123.781 72.5774 123.899 72.7229V72.7229C124.112 72.9851 124.039 73.364 124.039 73.7015V93.4342C124.061 94.1851 123.608 94.9112 122.778 95.4545C122.036 96.0142 121.027 96.4113 119.898 96.5879C119.085 96.713 118.249 96.7903 117.424 96.8897L108.678 97.9274L101.227 98.8143L91.8027 99.9183L85.4827 100.654C82.3177 101.03 79.1587 101.405 76.0056 101.78C75.0161 101.902 74.0265 102.023 73.0311 102.148V102.148Z" stroke="#5845B1" stroke-miterlimit="10"/>
<path d="M155.81 80.532C156.54 80.4118 157.147 81.0212 157.147 81.7612V84.945C157.147 85.0237 157.11 85.1012 157.109 85.1799V85.1799C157.109 85.2177 157.117 85.2542 157.117 85.2919V96.5105C157.146 96.9156 157.043 97.3202 156.814 97.6997C156.585 98.0792 156.235 98.4258 155.786 98.7184C154.881 99.3732 153.624 99.7986 152.252 99.9144C150.244 100.121 148.241 100.352 146.238 100.569C143.399 100.871 140.572 101.177 137.739 101.486L129.163 102.398L120.41 103.344C119.863 103.403 119.309 103.458 118.761 103.524C118.609 103.54 118.469 103.585 118.361 103.653C117.907 103.929 117.442 104.202 116.988 104.481C114.809 105.85 112.589 107.19 110.403 108.551C109.549 109.081 108.683 109.607 107.823 110.134C107.6 110.289 107.286 110.383 106.952 110.395C106.448 110.45 105.93 110.406 105.467 110.27C105.243 110.188 105.06 110.067 104.942 109.923V109.923C104.73 109.662 104.802 109.284 104.802 108.947V89.2131C104.779 88.4632 105.232 87.7382 106.062 87.1965C106.805 86.6367 107.814 86.2397 108.943 86.063C109.755 85.9342 110.592 85.8606 111.416 85.7613L120.163 84.7346L127.614 83.8477L137.038 82.7437L143.358 82.0077C146.523 81.6324 149.682 81.257 152.835 80.8816C153.825 80.7639 154.814 80.6424 155.81 80.532V80.532Z" stroke="#5845B1" stroke-miterlimit="10"/>
<path d="M73.0311 139.321C72.2941 139.418 71.7 138.797 71.7 138.053V134.83C71.7 134.773 71.7174 134.716 71.7174 134.659V134.659C71.7174 134.601 71.7 134.545 71.7 134.487V123.306C71.6714 122.901 71.7746 122.496 72.0034 122.117C72.2322 121.737 72.5818 121.391 73.0311 121.098C73.9375 120.444 75.1933 120.017 76.5651 119.898C78.5737 119.696 80.5763 119.464 82.5848 119.247C85.4179 118.945 88.251 118.636 91.0782 118.331L99.6777 117.4L108.43 116.454C108.978 116.395 109.532 116.34 110.079 116.274C110.231 116.258 110.372 116.213 110.48 116.145C110.934 115.869 111.405 115.597 111.852 115.317C114.032 113.948 116.252 112.608 118.443 111.247C119.291 110.717 120.157 110.191 121.017 109.664C121.241 109.509 121.555 109.415 121.889 109.403C122.393 109.346 122.912 109.39 123.373 109.528C123.598 109.61 123.78 109.731 123.898 109.876V109.876C124.111 110.136 124.039 110.514 124.039 110.851V130.585C124.063 131.336 123.61 132.063 122.778 132.605C122.036 133.165 121.027 133.562 119.898 133.739C119.085 133.868 118.249 133.941 117.424 134.041L108.678 135.082L101.227 135.969L91.8027 137.073L85.4827 137.827C82.3177 138.203 79.1587 138.578 76.0056 138.953C75.0161 139.071 74.0265 139.193 73.0311 139.321V139.321Z" stroke="#5845B1" stroke-miterlimit="10"/>
<path d="M155.81 117.682C156.544 117.569 157.147 118.185 157.147 118.928V122.107C157.147 122.188 157.11 122.267 157.11 122.347V122.347C157.109 122.386 157.117 122.423 157.117 122.462V133.675C157.146 134.08 157.043 134.485 156.814 134.864C156.585 135.244 156.236 135.59 155.786 135.883C154.882 136.539 153.625 136.965 152.252 137.083C150.244 137.285 148.241 137.521 146.239 137.734L137.739 138.65L129.163 139.563C126.248 139.88 123.332 140.2 120.411 140.509C119.863 140.568 119.309 140.623 118.761 140.693C118.61 140.707 118.47 140.751 118.361 140.818C117.907 141.098 117.442 141.366 116.989 141.65C114.809 143.015 112.589 144.354 110.404 145.716C109.549 146.25 108.684 146.776 107.824 147.302C107.596 147.455 107.285 147.548 106.952 147.563C106.448 147.616 105.931 147.573 105.468 147.438C105.242 147.356 105.06 147.234 104.942 147.089V147.089C104.729 146.827 104.802 146.448 104.802 146.11V126.378C104.779 125.627 105.233 124.901 106.063 124.357C106.805 123.798 107.814 123.401 108.943 123.224C109.756 123.099 110.592 123.022 111.417 122.922L120.163 121.899L127.614 121.016L137.038 119.912L143.358 119.176C146.523 118.801 149.682 118.425 152.835 118.05C153.825 117.928 154.814 117.807 155.81 117.682V117.682Z" stroke="#5845B1" stroke-miterlimit="10"/>
<path d="M228.098 -22.8174C228.817 -22.9245 229.406 -22.3208 229.406 -21.5937V-18.3504C229.406 -18.2917 229.388 -18.2337 229.388 -18.1751V-18.1751C229.388 -18.1164 229.406 -18.0584 229.406 -17.9998V-6.82054C229.433 -6.41548 229.329 -6.01117 229.1 -5.63178C228.871 -5.25239 228.523 -4.90574 228.074 -4.61255C227.168 -3.95826 225.912 -3.53196 224.54 -3.4129C222.532 -3.21051 220.529 -2.97866 218.521 -2.76154C215.688 -2.45979 212.855 -2.15067 210.021 -1.84523L201.428 -0.914192L192.675 0.0315628C192.127 0.0904423 191.574 0.145638 191.02 0.211878C190.87 0.228336 190.733 0.273318 190.625 0.340668C190.172 0.616665 189.701 0.888983 189.253 1.16866C187.074 2.53761 184.853 3.87712 182.662 5.2387L180.076 6.81374C179.85 6.96711 179.538 7.0595 179.205 7.07134C178.701 7.1282 178.182 7.08441 177.72 6.94621C177.496 6.86436 177.313 6.74378 177.195 6.5989V6.5989C176.983 6.33802 177.055 5.96019 177.055 5.62368V-14.1106C177.029 -14.8622 177.48 -15.5898 178.309 -16.1345C179.052 -16.6943 180.061 -17.0913 181.19 -17.268C182.002 -17.3968 182.839 -17.4704 183.663 -17.5697L192.445 -18.6112L199.896 -19.498L209.32 -20.602L215.646 -21.338L225.123 -22.4678C226.113 -22.5855 227.103 -22.707 228.098 -22.8174V-22.8174Z" stroke="#5845B1" stroke-miterlimit="10"/>
<path d="M145.296 36.0171C144.538 36.1061 143.935 35.4647 143.935 34.702V31.5041C143.935 31.4467 143.952 31.3899 143.952 31.3325V31.3325C143.952 31.2751 143.935 31.2183 143.935 31.1609C143.935 29.8358 143.935 28.5155 143.935 27.1999V19.9651C143.905 19.5601 144.006 19.1556 144.234 18.776C144.462 18.3964 144.811 18.0497 145.26 17.7571C146.165 17.1015 147.422 16.6749 148.794 16.5574C150.803 16.3514 152.805 16.1195 154.808 15.9061L163.307 14.9861L171.907 14.0551C174.852 13.7423 177.738 13.4221 180.653 13.113C181.207 13.0541 181.761 12.9952 182.309 12.929C182.46 12.9135 182.601 12.8684 182.709 12.8002C183.163 12.5242 183.628 12.2519 184.076 11.9722C186.255 10.6033 188.481 9.26373 190.667 7.90214C191.523 7.37222 192.381 6.84477 193.24 6.31976C193.466 6.16535 193.778 6.07168 194.112 6.05849C194.616 6.00313 195.134 6.04684 195.596 6.1836C195.823 6.26441 196.006 6.3848 196.125 6.52994V6.52994C196.337 6.79108 196.262 7.16994 196.262 7.50677V27.2404C196.275 27.6118 196.17 27.9811 195.954 28.3272C195.737 28.6733 195.414 28.9892 195.002 29.257C194.261 29.8165 193.254 30.2136 192.127 30.3904C191.314 30.5192 190.478 30.5928 189.653 30.6922L180.907 31.7336L173.456 32.6205L164.032 33.7245L157.706 34.4605L148.27 35.6491C147.28 35.7669 146.285 35.8883 145.296 36.0171V36.0171Z" stroke="#5845B1" stroke-miterlimit="10"/>
<path d="M228.099 14.3393C228.821 14.2353 229.407 14.8441 229.407 15.5734V18.8228C229.407 18.8802 229.389 18.937 229.389 18.9945V18.9945C229.389 19.0519 229.407 19.1087 229.407 19.1661V30.3472C229.434 30.7522 229.33 31.1565 229.101 31.5359C228.873 31.9153 228.524 32.262 228.075 32.5551C227.171 33.2108 225.914 33.6374 224.541 33.7548C222.533 33.9609 220.53 34.1927 218.522 34.4062L210.023 35.3261L201.429 36.2572C198.484 36.57 195.598 36.8901 192.676 37.1993C192.129 37.2581 191.575 37.3133 191.021 37.3833C190.873 37.3998 190.736 37.4433 190.627 37.5084C190.173 37.788 189.702 38.0604 189.254 38.34C187.075 39.7053 184.854 41.0485 182.663 42.4101C181.811 42.94 180.953 43.4675 180.089 43.9925C179.864 44.1469 179.551 44.2406 179.218 44.2537C178.714 44.307 178.196 44.2633 177.733 44.1286C177.508 44.0462 177.325 43.9249 177.207 43.7794V43.7794C176.995 43.5173 177.068 43.1384 177.068 42.8008V23.0682C177.045 22.3183 177.498 21.5933 178.328 21.0516C179.072 20.492 180.08 20.094 181.208 19.9144C182.021 19.7893 182.858 19.712 183.682 19.6164L192.447 18.5602L199.898 17.6733L209.322 16.5694L215.647 15.8334C218.789 15.458 221.948 15.0827 225.125 14.7073C226.114 14.5895 227.104 14.4644 228.099 14.3393V14.3393Z" stroke="#5845B1" stroke-miterlimit="10"/>
<path d="M145.295 73.1856C144.538 73.2747 143.935 72.6332 143.935 71.8705V68.6782C143.935 68.6195 143.952 68.5615 143.952 68.5029V68.5029C143.952 68.4442 143.935 68.3862 143.935 68.3276C143.935 67.0031 143.935 65.6823 143.935 64.3684V57.1336C143.905 56.7287 144.007 56.3243 144.235 55.9447C144.463 55.5652 144.811 55.2185 145.26 54.9256C146.168 54.2727 147.423 53.8466 148.794 53.726C150.803 53.5236 152.805 53.2917 154.808 53.0746L163.307 52.1583L171.907 51.2273L180.665 50.3073C181.219 50.2484 181.772 50.1932 182.32 50.127C182.471 50.1099 182.611 50.065 182.721 49.9982C183.174 49.7185 183.639 49.4498 184.087 49.1665C186.266 47.8012 188.493 46.4617 190.678 45.1001C191.532 44.5665 192.392 44.044 193.252 43.5141C193.481 43.3624 193.791 43.2692 194.124 43.2528C194.627 43.1991 195.145 43.2428 195.608 43.3779C195.835 43.4593 196.019 43.5804 196.137 43.7262V43.7262C196.35 43.9885 196.274 44.3684 196.274 44.7063V64.4384C196.286 64.8103 196.182 65.1803 195.965 65.5269C195.749 65.8736 195.425 66.1902 195.013 66.4587C194.273 67.0181 193.266 67.4152 192.139 67.5921C191.326 67.7209 190.49 67.7945 189.665 67.8938L180.918 68.9353L173.467 69.8185L164.043 70.9225L157.717 71.6584L148.27 72.8176C147.28 72.9391 146.285 73.0605 145.295 73.1856V73.1856Z" stroke="#5845B1" stroke-miterlimit="10"/>
<path d="M228.098 51.5043C228.821 51.4073 229.406 52.0159 229.406 52.7451V55.9896C229.406 56.0483 229.388 56.1063 229.388 56.1649V56.1649C229.388 56.2236 229.406 56.2816 229.406 56.3402V67.5195C229.433 67.9245 229.329 68.3288 229.1 68.7082C228.872 69.0876 228.523 69.4343 228.075 69.7274C227.168 70.3817 225.912 70.8081 224.541 70.9271C222.532 71.1295 220.53 71.3614 218.521 71.5785C215.688 71.8802 212.855 72.1894 210.022 72.4948L201.428 73.4258L192.676 74.3716C192.128 74.4305 191.574 74.4857 191.02 74.5519C190.871 74.5684 190.733 74.6133 190.626 74.6807C190.172 74.9567 189.701 75.229 189.253 75.5087C187.074 76.8776 184.854 78.2171 182.663 79.5787L180.077 81.1538C179.851 81.3071 179.538 81.3995 179.205 81.4113C178.702 81.4682 178.182 81.4244 177.721 81.2862C177.495 81.2047 177.313 81.0842 177.195 80.9392V80.9392C176.982 80.6783 177.055 80.3001 177.055 79.9635V60.2295C177.033 59.4785 177.486 58.7524 178.316 58.2092C179.058 57.6494 180.067 57.2524 181.196 57.0757C182.009 56.9469 182.845 56.8733 183.67 56.774L192.446 55.7289L199.897 54.842L209.321 53.738C211.429 53.4841 213.538 53.2375 215.647 53.002L225.124 51.8723C226.113 51.7545 227.103 51.6331 228.098 51.5043V51.5043Z" stroke="#5845B1" stroke-miterlimit="10"/>
<path d="M145.296 110.357C144.538 110.446 143.935 109.804 143.935 109.042V105.844C143.935 105.786 143.952 105.73 143.952 105.672V105.672C143.952 105.615 143.935 105.558 143.935 105.501C143.935 104.176 143.935 102.855 143.935 101.54V94.3195C143.905 93.9146 144.006 93.51 144.234 93.1304C144.462 92.7508 144.811 92.4042 145.26 92.1116C146.167 91.4573 147.422 91.0309 148.794 90.9119C150.803 90.7058 152.805 90.474 154.808 90.2606L163.307 89.3406L171.907 88.4095C174.852 88.0967 177.738 87.7766 180.653 87.4674C181.207 87.4086 181.761 87.3497 182.309 87.2834C182.459 87.2676 182.598 87.2241 182.709 87.1583C183.163 86.8787 183.628 86.6063 184.076 86.3267C186.255 84.9577 188.481 83.6182 190.667 82.2566C191.523 81.7267 192.381 81.1992 193.24 80.6742C193.466 80.5198 193.778 80.4261 194.112 80.413C194.616 80.3593 195.134 80.4029 195.596 80.5381C195.823 80.6189 196.006 80.7393 196.125 80.8844V80.8844C196.337 81.1455 196.262 81.5244 196.262 81.8612V101.595C196.275 101.966 196.17 102.336 195.954 102.682C195.737 103.028 195.414 103.344 195.002 103.611C194.261 104.171 193.254 104.568 192.127 104.745C191.314 104.874 190.478 104.947 189.653 105.047L180.907 106.088L173.456 106.975L164.032 108.079L157.706 108.815L148.27 109.989C147.28 110.107 146.285 110.228 145.296 110.357V110.357Z" stroke="#5845B1" stroke-miterlimit="10"/>
<path d="M228.099 88.6935C228.817 88.5824 229.407 89.1841 229.407 89.9103V93.1586C229.407 93.216 229.389 93.2728 229.389 93.3302V93.3302C229.389 93.3877 229.407 93.4444 229.407 93.5018V104.683C229.435 105.088 229.331 105.492 229.102 105.872C228.873 106.251 228.524 106.598 228.075 106.891C227.171 107.547 225.914 107.973 224.541 108.091C222.533 108.297 220.53 108.529 218.522 108.742L210.023 109.662L201.429 110.593C198.484 110.906 195.598 111.226 192.676 111.535C192.129 111.594 191.575 111.649 191.021 111.719C190.873 111.736 190.736 111.779 190.627 111.844C190.173 112.124 189.702 112.396 189.254 112.676C187.075 114.041 184.854 115.384 182.663 116.746C181.811 117.276 180.953 117.803 180.089 118.328C179.865 118.484 179.552 118.578 179.218 118.59C178.714 118.643 178.196 118.599 177.733 118.464C177.508 118.382 177.325 118.261 177.207 118.115V118.115C176.995 117.853 177.068 117.474 177.068 117.137V97.404C177.045 96.6541 177.498 95.9291 178.328 95.3874C179.072 94.8278 180.08 94.4298 181.208 94.2502C182.021 94.1251 182.858 94.0478 183.682 93.9522L192.447 92.896L199.898 92.0091L209.322 90.9052L215.647 90.1692C218.789 89.7938 221.948 89.4184 225.125 89.0431C226.114 88.9253 227.104 88.8002 228.099 88.6935V88.6935Z" stroke="#5845B1" stroke-miterlimit="10"/>
<path d="M145.295 147.526C144.538 147.615 143.935 146.973 143.935 146.21V143.018C143.935 142.959 143.952 142.901 143.952 142.843V142.843C143.952 142.784 143.935 142.726 143.935 142.667C143.935 141.343 143.935 140.022 143.935 138.708V131.488C143.905 131.083 144.007 130.679 144.235 130.299C144.463 129.92 144.811 129.573 145.26 129.28C146.168 128.627 147.423 128.201 148.794 128.081C150.803 127.878 152.805 127.646 154.808 127.429C157.641 127.127 160.474 126.818 163.307 126.513L171.907 125.582L180.665 124.647C181.219 124.588 181.772 124.533 182.32 124.467C182.471 124.45 182.611 124.405 182.721 124.338C183.174 124.058 183.639 123.79 184.087 123.506C186.266 122.141 188.493 120.802 190.678 119.44L193.252 117.854C193.481 117.702 193.791 117.609 194.124 117.593C194.627 117.539 195.145 117.583 195.608 117.718C195.835 117.799 196.019 117.92 196.137 118.066V118.066C196.35 118.328 196.274 118.708 196.274 119.046V138.778C196.286 139.15 196.182 139.52 195.965 139.867C195.749 140.213 195.425 140.53 195.013 140.799C194.273 141.358 193.266 141.755 192.139 141.932C191.326 142.061 190.49 142.134 189.665 142.234L180.918 143.275L173.467 144.162L164.043 145.266L157.717 146.002L148.27 147.158C147.28 147.279 146.285 147.4 145.295 147.526V147.526Z" stroke="#5845B1" stroke-miterlimit="10"/>
<path d="M228.098 125.86C228.817 125.753 229.406 126.357 229.406 127.084V130.327C229.406 130.386 229.388 130.444 229.388 130.503V130.503C229.388 130.561 229.406 130.619 229.406 130.678V141.857C229.433 142.262 229.329 142.667 229.1 143.046C228.872 143.425 228.523 143.772 228.075 144.065C227.168 144.719 225.912 145.146 224.541 145.265C222.532 145.467 220.529 145.699 218.521 145.916C215.688 146.218 212.855 146.527 210.022 146.833L201.428 147.764L192.675 148.709C192.128 148.768 191.574 148.823 191.02 148.89C190.872 148.908 190.734 148.952 190.626 149.018C190.172 149.294 189.701 149.567 189.253 149.846C187.074 151.215 184.853 152.555 182.662 153.916L180.077 155.491C179.851 155.645 179.538 155.737 179.205 155.749C178.702 155.805 178.183 155.763 177.721 155.628C177.495 155.545 177.313 155.424 177.195 155.278V155.278C176.982 155.016 177.055 154.637 177.055 154.3V134.567C177.032 133.816 177.485 133.09 178.316 132.547C179.058 131.987 180.067 131.59 181.196 131.413C182.009 131.285 182.845 131.211 183.67 131.112L192.446 130.067L199.897 129.18C203.038 128.809 206.179 128.441 209.321 128.076L215.647 127.34L225.124 126.21C226.113 126.092 227.103 125.971 228.098 125.86V125.86Z" stroke="#5845B1" stroke-miterlimit="10"/>
<path d="M211.884 27.8351C211.119 27.9286 210.512 27.2785 210.512 26.508V23.3222C210.512 23.2648 210.529 23.208 210.529 23.1505V23.1505C210.529 23.0931 210.512 23.0363 210.512 22.9788C210.512 21.6538 210.512 20.3335 210.512 19.0179V11.7978C210.482 11.3929 210.584 10.9885 210.812 10.6089C211.04 10.2294 211.389 9.88271 211.837 9.58984C212.743 8.93555 213.999 8.50922 215.371 8.39016C217.38 8.18777 219.382 7.95226 221.385 7.73883L229.884 6.82252L238.484 5.88779C241.429 5.57499 244.315 5.25484 247.23 4.94572C247.784 4.88684 248.338 4.83164 248.885 4.76172C249.037 4.74749 249.177 4.7037 249.286 4.63661C249.74 4.35694 250.205 4.0883 250.653 3.80494C252.832 2.43967 255.058 1.09648 257.243 -0.265106C258.099 -0.795021 258.957 -1.3225 259.817 -1.84751C260.046 -1.9992 260.357 -2.09232 260.689 -2.10877C261.195 -2.16204 261.714 -2.11843 262.179 -1.98367C262.405 -1.90139 262.587 -1.78008 262.704 -1.63442V-1.63442C262.915 -1.37194 262.839 -0.993646 262.839 -0.656866V19.0768C262.852 19.4482 262.747 19.8176 262.531 20.1636C262.314 20.5097 261.991 20.8257 261.579 21.0934C260.838 21.6538 259.832 22.0522 258.704 22.2305C257.891 22.3557 257.055 22.4329 256.23 22.5323L247.484 23.57L240.033 24.4569L230.609 25.5609L224.283 26.2969L214.829 27.4671C213.84 27.5849 212.844 27.71 211.884 27.8351V27.8351Z" stroke="#5845B1" stroke-miterlimit="10"/>
<path d="M294.656 6.17211C295.384 6.05959 295.982 6.67027 295.982 7.40657V10.6373C295.982 10.6947 295.964 10.7515 295.964 10.8089V10.8089C295.964 10.8663 295.982 10.9231 295.982 10.9805V22.1726C296.008 22.5776 295.904 22.9818 295.675 23.3611C295.447 23.7405 295.098 24.0872 294.65 24.3806C293.746 25.0354 292.489 25.4608 291.116 25.5766C289.108 25.7827 287.105 26.0145 285.097 26.2316C282.266 26.5334 279.433 26.8388 276.597 27.1479L268.004 28.0606C265.09 28.377 262.173 28.6911 259.251 29.0026C258.704 29.0615 258.15 29.1204 257.596 29.1866C257.447 29.2031 257.309 29.2481 257.202 29.3154C256.748 29.5914 256.277 29.8637 255.829 30.1434C253.65 31.5124 251.429 32.8519 249.238 34.2135C248.386 34.7434 247.528 35.2708 246.664 35.7959C246.44 35.9516 246.127 36.0455 245.793 36.0571C245.289 36.112 244.771 36.0683 244.308 35.932C244.083 35.8502 243.901 35.7296 243.783 35.5847V35.5847C243.571 35.3238 243.643 34.946 243.643 34.6094V14.8752C243.62 14.1254 244.073 13.4003 244.903 12.8586C245.646 12.2989 246.655 11.9018 247.783 11.7252C248.596 11.5964 249.433 11.5228 250.257 11.4234L259.004 10.3746L266.455 9.48777L275.879 8.38378L282.205 7.64778C285.346 7.27243 288.505 6.89705 291.682 6.52169C292.671 6.40393 293.661 6.28251 294.656 6.17211V6.17211Z" stroke="#5845B1" stroke-miterlimit="10"/>
<path d="M211.884 65.0042C211.119 65.0923 210.512 64.4437 210.512 63.6737V60.493C210.512 60.4344 210.529 60.3764 210.529 60.3177V60.3177C210.529 60.2591 210.512 60.201 210.512 60.1424C210.512 58.8227 210.512 57.503 210.512 56.1833V48.9669C210.482 48.562 210.585 48.1576 210.812 47.7781C211.04 47.3986 211.389 47.0519 211.837 46.7589C212.745 46.1059 214 45.6799 215.371 45.5592C217.38 45.3568 219.382 45.125 221.385 44.9079C224.218 44.6061 227.051 44.297 229.884 43.9915L238.484 43.0605L247.224 42.1221C247.778 42.0632 248.332 42.008 248.879 41.9418C249.031 41.9263 249.172 41.8812 249.28 41.813C249.734 41.537 250.199 41.2647 250.647 40.985C252.826 39.616 255.052 38.2765 257.237 36.915C258.093 36.385 258.951 35.8576 259.811 35.3326C260.037 35.1782 260.349 35.0845 260.683 35.0713C261.189 35.0141 261.71 35.0579 262.173 35.1964C262.399 35.2777 262.581 35.3983 262.698 35.5434V35.5434C262.909 35.8047 262.833 36.1823 262.833 36.5181V56.2532C262.846 56.6252 262.741 56.9951 262.525 57.3418C262.308 57.6884 261.985 58.005 261.573 58.2735C260.832 58.8329 259.825 59.23 258.698 59.4069C257.885 59.5357 257.049 59.6093 256.224 59.7087L247.478 60.7501L240.027 61.637L230.603 62.741L224.277 63.4954L214.829 64.6362C213.84 64.7539 212.844 64.8754 211.884 65.0042V65.0042Z" stroke="#5845B1" stroke-miterlimit="10"/>
<path d="M294.657 43.3272C295.388 43.2248 295.982 43.8404 295.982 44.5789V47.8053C295.982 47.8639 295.964 47.9219 295.964 47.9806V47.9806C295.964 48.0392 295.982 48.0972 295.982 48.1559V59.3425C296.009 59.7475 295.905 60.1518 295.676 60.5312C295.448 60.9106 295.099 61.2573 294.651 61.5505C293.746 62.2061 292.489 62.6327 291.117 62.7501C289.108 62.9525 287.106 63.1881 285.097 63.4015L276.598 64.3178L268.004 65.2304C265.089 65.5469 262.173 65.8671 259.252 66.1762C258.704 66.2351 258.15 66.2903 257.596 66.3565C257.448 66.3745 257.31 66.4192 257.202 66.4853C256.748 66.765 256.277 67.0336 255.829 67.317C253.65 68.6822 251.43 70.0217 249.238 71.3833C248.384 71.9169 247.524 72.4432 246.665 72.9694C246.437 73.1223 246.126 73.2156 245.793 73.2307C245.289 73.2839 244.772 73.2403 244.308 73.1056C244.083 73.0231 243.901 72.9019 243.783 72.7563V72.7563C243.57 72.4942 243.643 72.1153 243.643 71.7778V52.0451C243.62 51.2942 244.073 50.5681 244.903 50.0248C245.646 49.4651 246.655 49.068 247.784 48.8914C248.596 48.7662 249.433 48.689 250.257 48.5896L259.004 47.5445L266.455 46.6613L275.879 45.5573L282.205 44.8213C285.346 44.446 288.505 44.0706 291.682 43.6952C292.672 43.5738 293.661 43.4524 294.657 43.3272V43.3272Z" stroke="#5845B1" stroke-miterlimit="10"/>
<path d="M211.884 102.174C211.12 102.264 210.512 101.617 210.512 100.847V97.6664C210.512 97.6079 210.528 97.5499 210.528 97.4914V97.4914C210.528 97.4329 210.512 97.3749 210.512 97.3164C210.512 95.9919 210.512 94.672 210.512 93.3569V86.1368C210.482 85.7319 210.584 85.3275 210.812 84.948C211.04 84.5684 211.389 84.2217 211.837 83.9289C212.743 83.2746 213.999 82.8482 215.371 82.7292C217.38 82.5268 219.382 82.2913 221.385 82.0779L229.884 81.1615L238.484 80.2305C241.429 79.914 244.315 79.5939 247.23 79.2847C247.784 79.2259 248.338 79.1707 248.885 79.1007C249.037 79.0865 249.177 79.0427 249.286 78.9756C249.74 78.6959 250.205 78.4273 250.653 78.144C252.832 76.7787 255.058 75.4355 257.243 74.096C258.098 73.5624 258.957 73.0362 259.817 72.5099C260.046 72.3582 260.357 72.2651 260.689 72.2486C261.195 72.1954 261.714 72.239 262.179 72.3738C262.405 72.456 262.587 72.5774 262.704 72.723V72.723C262.915 72.9855 262.839 73.3638 262.839 73.7005V93.4342C262.852 93.8062 262.747 94.1761 262.531 94.5228C262.314 94.8695 261.991 95.1861 261.579 95.4545C260.838 96.014 259.831 96.4111 258.704 96.588C257.891 96.7131 257.055 96.7904 256.23 96.8897L247.484 97.9275L240.033 98.8143L230.609 99.9183L224.283 100.654L214.829 101.806C213.84 101.928 212.844 102.049 211.884 102.174V102.174Z" stroke="#5845B1" stroke-miterlimit="10"/>
<path d="M294.656 80.532C295.38 80.4125 295.982 81.0162 295.982 81.7494V84.9788C295.982 85.0362 295.964 85.093 295.964 85.1504V85.1504C295.964 85.2078 295.982 85.2646 295.982 85.322V96.5105C296.009 96.9155 295.905 97.3198 295.676 97.6992C295.448 98.0786 295.099 98.4253 294.65 98.7184C293.746 99.3732 292.489 99.7986 291.116 99.9144C289.108 100.121 287.105 100.352 285.097 100.569C282.266 100.871 279.433 101.177 276.597 101.486L268.004 102.398L259.251 103.344C258.704 103.403 258.15 103.458 257.596 103.524C257.447 103.541 257.309 103.586 257.202 103.653C256.748 103.929 256.277 104.202 255.829 104.481C253.65 105.85 251.429 107.19 249.238 108.551C248.386 109.081 247.528 109.609 246.664 110.134C246.44 110.289 246.127 110.383 245.793 110.395C245.289 110.45 244.771 110.406 244.308 110.27C244.083 110.188 243.901 110.067 243.783 109.923V109.923C243.571 109.662 243.643 109.284 243.643 108.947V89.2131C243.62 88.4632 244.073 87.7382 244.903 87.1965C245.653 86.6321 246.673 86.2334 247.813 86.0593C248.626 85.9305 249.462 85.857 250.287 85.7576L259.004 84.7346L266.455 83.8477L275.879 82.7437L282.205 82.0077C285.346 81.6324 288.505 81.257 291.682 80.8816C292.671 80.7639 293.661 80.6424 294.656 80.532V80.532Z" stroke="#5845B1" stroke-miterlimit="10"/>
<path d="M211.884 139.346C211.119 139.434 210.512 138.785 210.512 138.015V134.833C210.512 134.776 210.529 134.719 210.529 134.661V134.661C210.529 134.604 210.512 134.547 210.512 134.49C210.512 133.165 210.512 131.844 210.512 130.529V123.309C210.482 122.904 210.585 122.499 210.812 122.12C211.04 121.74 211.389 121.394 211.837 121.101C212.745 120.448 214 120.022 215.371 119.901C217.38 119.699 219.382 119.467 221.385 119.25L229.884 118.333L238.484 117.402L247.224 116.464C247.778 116.405 248.332 116.35 248.879 116.284C249.031 116.268 249.172 116.223 249.28 116.155C249.734 115.879 250.199 115.606 250.647 115.327C252.826 113.958 255.052 112.618 257.237 111.257C258.093 110.727 258.951 110.199 259.811 109.674C260.037 109.52 260.349 109.426 260.683 109.413C261.189 109.356 261.71 109.4 262.173 109.538C262.399 109.62 262.581 109.74 262.698 109.885V109.885C262.909 110.147 262.833 110.524 262.833 110.86V130.595C262.846 130.967 262.742 131.337 262.525 131.684C262.309 132.03 261.985 132.347 261.573 132.615C260.832 133.175 259.825 133.572 258.698 133.749C257.885 133.878 257.049 133.951 256.224 134.05L247.478 135.092L240.027 135.979L230.603 137.083L224.277 137.837L214.829 138.978C213.84 139.096 212.844 139.217 211.884 139.346V139.346Z" stroke="#5845B1" stroke-miterlimit="10"/>
<path d="M294.657 117.682C295.384 117.569 295.982 118.18 295.982 118.916V122.142C295.982 122.2 295.964 122.258 295.964 122.317V122.317C295.964 122.375 295.982 122.433 295.982 122.492V133.675C296.009 134.08 295.905 134.484 295.676 134.864C295.448 135.243 295.099 135.59 294.651 135.883C293.746 136.539 292.489 136.965 291.117 137.083C289.108 137.285 287.106 137.521 285.097 137.734L276.598 138.65L268.004 139.563C265.089 139.879 262.173 140.2 259.252 140.509C258.704 140.568 258.15 140.623 257.596 140.693C257.447 140.708 257.309 140.751 257.202 140.818C256.748 141.097 256.277 141.366 255.829 141.649C253.65 143.015 251.43 144.354 249.238 145.716C248.384 146.249 247.524 146.776 246.665 147.302C246.437 147.455 246.126 147.548 245.793 147.563C245.289 147.616 244.772 147.573 244.308 147.438C244.083 147.356 243.901 147.234 243.783 147.089V147.089C243.57 146.827 243.643 146.448 243.643 146.11V126.378C243.62 125.627 244.073 124.901 244.903 124.357C245.654 123.794 246.674 123.397 247.813 123.224C248.626 123.099 249.462 123.022 250.287 122.922L259.004 121.899L266.455 121.016L275.879 119.912L282.205 119.176C285.346 118.801 288.505 118.425 291.682 118.05C292.672 117.928 293.661 117.807 294.657 117.682V117.682Z" stroke="#5845B1" stroke-miterlimit="10"/>
<path d="M366.938 -22.8139C367.657 -22.9233 368.246 -22.3203 368.246 -21.5937V-18.3506C368.246 -18.292 368.228 -18.2339 368.228 -18.1753V-18.1753C368.228 -18.1167 368.246 -18.0586 368.246 -18V-6.82075C368.273 -6.4157 368.169 -6.01138 367.941 -5.63199C367.712 -5.25261 367.363 -4.90595 366.915 -4.61277C366.008 -3.95901 364.752 -3.53282 363.381 -3.41312C361.372 -3.21072 359.375 -2.97888 357.367 -2.76176C354.534 -2.46 351.701 -2.15089 348.868 -1.84545L340.286 -0.925457L331.539 0.0202978C330.985 0.0791773 330.432 0.134373 329.884 0.200613C329.732 0.216108 329.592 0.261199 329.484 0.329425C329.03 0.605423 328.565 0.87774 328.117 1.15742C325.938 2.52637 323.717 3.86587 321.526 5.22746L318.952 6.81353C318.726 6.96689 318.413 7.05928 318.08 7.07113C317.577 7.12799 317.058 7.0842 316.596 6.946C316.37 6.86484 316.187 6.7444 316.069 6.59934V6.59934C315.856 6.3383 315.931 5.95978 315.931 5.62307V-14.1108C315.908 -14.8617 316.361 -15.5878 317.191 -16.1311C317.933 -16.6914 318.942 -17.0886 320.071 -17.2645C320.884 -17.3933 321.715 -17.4669 322.539 -17.5663L331.292 -18.6077L338.737 -19.4946L348.161 -20.5986L354.487 -21.3346L363.958 -22.4643C364.953 -22.5821 365.943 -22.7035 366.938 -22.8139V-22.8139Z" stroke="#5845B1" stroke-miterlimit="10"/>
<path d="M284.102 35.9543C283.377 36.0754 282.777 35.4681 282.777 34.7333V31.5038C282.777 31.4464 282.794 31.3896 282.794 31.3322V31.3322C282.794 31.2748 282.777 31.218 282.777 31.1606V19.9648C282.749 19.5597 282.853 19.1553 283.081 18.7758C283.31 18.3964 283.659 18.0497 284.108 17.7568C285.012 17.1004 286.269 16.6736 287.642 16.5571C289.651 16.3511 291.647 16.1192 293.656 15.9058L302.155 14.9858L310.755 14.0548C313.7 13.742 316.586 13.4218 319.501 13.1127C320.055 13.0538 320.609 12.9949 321.156 12.9287C321.308 12.9132 321.449 12.8681 321.557 12.7999C322.01 12.5239 322.476 12.2516 322.923 11.9719C325.103 10.603 327.323 9.26343 329.514 7.90185C330.367 7.37193 331.224 6.84447 332.088 6.31946C332.312 6.16377 332.626 6.06983 332.96 6.0582C333.464 6.00333 333.982 6.04701 334.444 6.18331C334.67 6.26482 334.852 6.38534 334.971 6.5303V6.5303C335.183 6.79128 335.11 7.16945 335.11 7.50607V27.2401C335.133 27.99 334.68 28.715 333.849 29.2567C333.108 29.817 332.098 30.2142 330.969 30.3901C330.156 30.5189 329.326 30.5925 328.501 30.6919L319.749 31.7333L312.304 32.6202L302.88 33.7242L296.554 34.4602L287.083 35.5863C286.087 35.704 285.098 35.8255 284.102 35.9543V35.9543Z" stroke="#5845B1" stroke-miterlimit="10"/>
<path d="M366.939 14.3425C367.66 14.2363 368.246 14.8443 368.246 15.5732V18.8223C368.246 18.8798 368.228 18.9366 368.228 18.994V18.994C368.228 19.0515 368.246 19.1083 368.246 19.1657V30.3467C368.273 30.7518 368.169 31.1561 367.941 31.5355C367.712 31.9149 367.363 32.2615 366.915 32.5547C366.01 33.2098 364.753 33.6363 363.381 33.7543C361.372 33.9604 359.376 34.1923 357.367 34.4057L348.868 35.3257L340.286 36.2457C337.341 36.5585 334.455 36.8786 331.539 37.1878C330.986 37.2466 330.432 37.3018 329.884 37.3718C329.734 37.3876 329.594 37.4312 329.484 37.4969C329.03 37.7766 328.565 38.0489 328.117 38.3286C325.938 39.6938 323.717 41.037 321.526 42.3986C320.67 42.9285 319.812 43.456 318.952 43.981C318.727 44.1354 318.414 44.2291 318.081 44.2423C317.577 44.2955 317.059 44.2518 316.596 44.1171C316.37 44.0354 316.187 43.9143 316.068 43.7686V43.7686C315.856 43.5063 315.931 43.1267 315.931 42.789V23.0567C315.908 22.3068 316.361 21.5818 317.191 21.0401C317.934 20.4798 318.943 20.0816 320.071 19.903C320.884 19.7778 321.715 19.7006 322.539 19.6049L331.292 18.5634L338.737 17.6766L348.161 16.5726L354.487 15.8366L363.958 14.7105C364.954 14.5928 365.943 14.4676 366.939 14.3425V14.3425Z" stroke="#5845B1" stroke-miterlimit="10"/>
<path d="M284.102 73.1269C283.376 73.246 282.777 72.6377 282.777 71.9026V68.6783C282.777 68.6196 282.794 68.5616 282.794 68.503V68.503C282.794 68.4443 282.777 68.3863 282.777 68.3277V57.1337C282.749 56.7287 282.853 56.3243 283.082 55.945C283.311 55.5656 283.66 55.2189 284.108 54.9257C285.015 54.272 286.27 53.8458 287.642 53.7261C289.65 53.5237 291.647 53.2918 293.656 53.0747L302.155 52.1584L310.754 51.2274L319.501 50.2816C320.055 50.2227 320.608 50.1675 321.156 50.1013C321.307 50.0842 321.447 50.0394 321.557 49.9725C322.01 49.6928 322.476 49.4242 322.923 49.1408C325.103 47.7756 327.323 46.436 329.514 45.0745C330.368 44.5409 331.228 44.0183 332.088 43.4884C332.315 43.3355 332.627 43.2422 332.96 43.2271C333.463 43.1739 333.981 43.2175 334.444 43.3522C334.67 43.434 334.854 43.5551 334.972 43.7008V43.7008C335.185 43.9631 335.11 44.3427 335.11 44.6804V64.4127C335.132 65.1636 334.679 65.8897 333.849 66.433C333.108 66.9933 332.098 67.3905 330.969 67.5664C330.156 67.6952 329.326 67.7688 328.501 67.8682L319.749 68.9096L312.303 69.7928L302.879 70.8968L296.554 71.6328L287.082 72.7589C286.087 72.8803 285.097 73.0017 284.102 73.1269V73.1269Z" stroke="#5845B1" stroke-miterlimit="10"/>
<path d="M366.939 51.5074C367.661 51.4083 368.246 52.016 368.246 52.7449V55.9891C368.246 56.0478 368.229 56.1058 368.229 56.1644V56.1644C368.229 56.2231 368.246 56.2811 368.246 56.3397V67.519C368.273 67.924 368.17 68.3283 367.941 68.7077C367.712 69.0871 367.363 69.4338 366.915 69.7269C366.008 70.3807 364.753 70.8069 363.381 70.9266C361.373 71.129 359.376 71.3609 357.367 71.578C354.534 71.8797 351.701 72.1888 348.868 72.4943L340.286 73.4143L331.54 74.36C330.986 74.4189 330.432 74.4741 329.884 74.5403C329.733 74.5558 329.592 74.6009 329.484 74.6692C329.03 74.9452 328.565 75.2175 328.117 75.4971C325.938 76.8661 323.718 78.2056 321.526 79.5672L318.953 81.1533C318.727 81.3066 318.414 81.399 318.081 81.4108C317.577 81.4677 317.058 81.4239 316.597 81.2857C316.37 81.2049 316.187 81.0845 316.068 80.9394V80.9394C315.856 80.6783 315.931 80.2994 315.931 79.9626V60.2289C315.908 59.478 316.361 58.7519 317.191 58.2086C317.933 57.6483 318.942 57.2512 320.072 57.0752C320.884 56.9464 321.715 56.8728 322.54 56.7735L331.292 55.732L338.737 54.8452L348.161 53.7412C350.27 53.4873 352.378 53.2407 354.487 53.0052L363.958 51.8754C364.954 51.7577 365.943 51.6362 366.939 51.5074V51.5074Z" stroke="#5845B1" stroke-miterlimit="10"/>
<path d="M284.102 110.309C283.374 110.422 282.777 109.811 282.777 109.074V105.844C282.777 105.786 282.794 105.729 282.794 105.672V105.672C282.794 105.615 282.777 105.558 282.777 105.5V94.3193C282.749 93.9142 282.853 93.5097 283.081 93.1303C283.31 92.7508 283.659 92.4042 284.108 92.1113C285.013 91.4562 286.27 91.0297 287.642 90.9116C289.651 90.7055 291.647 90.4737 293.656 90.2603L302.155 89.3403L310.755 88.4092C313.7 88.0964 316.586 87.7763 319.501 87.4672C320.055 87.4083 320.609 87.3494 321.156 87.2832C321.307 87.2673 321.446 87.2238 321.557 87.1581C322.01 86.8784 322.476 86.6061 322.923 86.3264C325.103 84.9574 327.323 83.6179 329.514 82.2563C330.367 81.7264 331.224 81.1989 332.088 80.6739C332.312 80.5182 332.626 80.4243 332.96 80.4127C333.464 80.3595 333.981 80.4031 334.444 80.5378C334.67 80.6193 334.852 80.7398 334.971 80.8848V80.8848C335.183 81.1457 335.11 81.5239 335.11 81.8605V101.595C335.133 102.344 334.68 103.069 333.849 103.611C333.108 104.171 332.098 104.569 330.969 104.745C330.156 104.873 329.326 104.947 328.501 105.046L319.749 106.088L312.304 106.975L302.88 108.079L296.554 108.815L287.083 109.941C286.087 110.058 285.098 110.18 284.102 110.309V110.309Z" stroke="#5845B1" stroke-miterlimit="10"/>
<path d="M366.939 88.6971C367.655 88.5837 368.246 89.1847 368.246 89.9105V93.1585C368.246 93.216 368.229 93.2727 368.229 93.3301V93.3301C368.229 93.3876 368.246 93.4443 368.246 93.5018V104.683C368.274 105.088 368.17 105.492 367.942 105.872C367.713 106.251 367.364 106.598 366.915 106.891C366.01 107.546 364.753 107.972 363.381 108.09C361.372 108.297 359.376 108.528 357.367 108.742L348.868 109.662L340.286 110.582C337.341 110.895 334.455 111.215 331.539 111.524C330.986 111.583 330.432 111.638 329.884 111.708C329.734 111.724 329.594 111.767 329.484 111.833C329.03 112.113 328.565 112.385 328.117 112.665C325.938 114.03 323.717 115.373 321.526 116.735C320.67 117.265 319.812 117.792 318.952 118.317C318.729 118.473 318.415 118.567 318.081 118.578C317.577 118.632 317.059 118.588 316.596 118.453C316.37 118.372 316.187 118.25 316.068 118.105V118.105C315.856 117.842 315.931 117.463 315.931 117.125V97.3928C315.908 96.643 316.361 95.9179 317.191 95.3762C317.934 94.8159 318.943 94.4177 320.071 94.2391C320.884 94.114 321.715 94.0367 322.539 93.941L331.292 92.8996L338.737 92.0127L348.161 90.9087L354.487 90.1727L363.958 89.0467C364.954 88.9289 365.943 88.8038 366.939 88.6971V88.6971Z" stroke="#5845B1" stroke-miterlimit="10"/>
<path d="M284.108 147.501C283.372 147.602 282.777 146.982 282.777 146.24V143.019C282.777 142.96 282.794 142.902 282.794 142.844V142.844C282.794 142.785 282.777 142.727 282.777 142.668V131.489C282.749 131.084 282.853 130.68 283.082 130.3C283.311 129.921 283.66 129.574 284.108 129.281C285.015 128.627 286.27 128.201 287.642 128.082C289.65 127.879 291.647 127.647 293.656 127.43C296.489 127.128 299.322 126.819 302.155 126.514L310.754 125.583L319.501 124.637C320.055 124.578 320.608 124.523 321.156 124.457C321.307 124.44 321.447 124.395 321.557 124.328C322.01 124.048 322.476 123.78 322.923 123.496C325.103 122.131 327.323 120.792 329.514 119.43L332.088 117.844C332.315 117.691 332.627 117.598 332.96 117.583C333.463 117.529 333.981 117.573 334.444 117.708C334.67 117.789 334.854 117.911 334.972 118.056V118.056C335.185 118.319 335.11 118.698 335.11 119.036V138.768C335.132 139.519 334.679 140.245 333.849 140.788C333.108 141.349 332.098 141.746 330.969 141.922C330.156 142.051 329.326 142.124 328.501 142.224L319.749 143.265L312.309 144.167L302.885 145.271L296.559 146.007L287.088 147.133C286.093 147.254 285.103 147.376 284.108 147.501V147.501Z" stroke="#5845B1" stroke-miterlimit="10"/>
<path d="M366.939 125.864C367.657 125.754 368.246 126.357 368.246 127.084V130.327C368.246 130.386 368.229 130.444 368.229 130.502V130.502C368.229 130.561 368.246 130.619 368.246 130.678V141.857C368.273 142.262 368.169 142.666 367.941 143.046C367.712 143.425 367.363 143.772 366.915 144.065C366.008 144.719 364.752 145.145 363.381 145.265C361.372 145.467 359.376 145.699 357.367 145.916C354.534 146.218 351.701 146.527 348.868 146.832L340.286 147.752L331.539 148.698C330.986 148.757 330.432 148.812 329.884 148.878C329.733 148.895 329.594 148.94 329.484 149.007C329.03 149.283 328.565 149.555 328.117 149.835C325.938 151.204 323.717 152.544 321.526 153.905L318.952 155.491C318.726 155.645 318.414 155.737 318.081 155.749C317.578 155.805 317.059 155.763 316.596 155.627C316.37 155.546 316.187 155.425 316.068 155.279V155.279C315.856 155.017 315.931 154.637 315.931 154.299V134.567C315.908 133.816 316.361 133.09 317.191 132.547C317.933 131.986 318.942 131.589 320.071 131.413C320.884 131.284 321.715 131.211 322.539 131.111L331.292 130.07L338.737 129.183L348.161 128.079L354.487 127.343L363.958 126.213C364.954 126.096 365.943 125.974 366.939 125.864V125.864Z" stroke="#5845B1" stroke-miterlimit="10"/>
<path d="M350.677 27.7909C349.948 27.905 349.352 27.2907 349.352 26.5529V23.3222C349.352 23.2647 349.37 23.2079 349.37 23.1505V23.1505C349.37 23.093 349.352 23.0362 349.352 22.9788V11.7978C349.325 11.3927 349.429 10.9884 349.657 10.609C349.886 10.2296 350.235 9.88298 350.683 9.5898C351.588 8.93471 352.845 8.5082 354.217 8.39013C356.226 8.18773 358.222 7.95222 360.231 7.73879L368.73 6.82248L377.33 5.88775C380.275 5.57495 383.161 5.2548 386.076 4.94568C386.63 4.8868 387.184 4.8316 387.731 4.76168C387.883 4.74745 388.023 4.70366 388.132 4.63658C388.585 4.3569 389.051 4.08826 389.498 3.8049C391.678 2.43963 393.898 1.09644 396.089 -0.265145C396.945 -0.79506 397.803 -1.32254 398.663 -1.84755C398.891 -2.00042 399.202 -2.09377 399.535 -2.10881C400.039 -2.16202 400.556 -2.1184 401.019 -1.98371C401.246 -1.90193 401.429 -1.78083 401.547 -1.63514V-1.63514C401.76 -1.37282 401.685 -0.993241 401.685 -0.655498V19.0768C401.708 19.8266 401.255 20.5517 400.424 21.0934C399.683 21.6549 398.674 22.0534 397.544 22.2305C396.731 22.3556 395.901 22.4329 395.076 22.5322C392.161 22.9002 389.239 23.2241 386.324 23.57L378.879 24.4569L369.455 25.5609L363.129 26.2969L353.658 27.4229C352.662 27.5407 351.673 27.6658 350.677 27.7909V27.7909Z" stroke="#5845B1" stroke-miterlimit="10"/>
<path d="M433.497 6.17924C434.223 6.06215 434.822 6.67133 434.822 7.40693V10.637C434.822 10.6945 434.804 10.7512 434.804 10.8086V10.8086C434.804 10.8661 434.822 10.9228 434.822 10.9803V22.1724C434.848 22.5774 434.744 22.9816 434.515 23.3609C434.287 23.7402 433.938 24.0869 433.491 24.3804C432.585 25.0344 431.328 25.4596 429.957 25.5764C427.948 25.7824 425.951 26.0143 423.943 26.2314C421.112 26.5332 418.279 26.8386 415.444 27.1477L406.844 28.0603C403.927 28.3768 401.011 28.6908 398.097 29.0024C397.544 29.0613 396.99 29.1202 396.442 29.1864C396.291 29.2028 396.151 29.2478 396.042 29.3152C395.588 29.5912 395.123 29.8635 394.675 30.1432C392.496 31.5121 390.275 32.8516 388.084 34.2132C387.232 34.7432 386.374 35.2706 385.51 35.7956C385.287 35.9513 384.973 36.0453 384.639 36.0569C384.135 36.1118 383.617 36.0681 383.154 35.9318C382.929 35.8503 382.746 35.7298 382.628 35.5848V35.5848C382.416 35.3238 382.489 34.9457 382.489 34.609V14.875C382.466 14.1251 382.919 13.4001 383.749 12.8584C384.491 12.2981 385.5 11.9009 386.629 11.725C387.442 11.5962 388.273 11.5226 389.097 11.4232L397.85 10.3818L405.295 9.49489L414.719 8.3909L421.045 7.65491L430.516 6.52884C431.512 6.41108 432.501 6.28964 433.497 6.17924V6.17924Z" stroke="#5845B1" stroke-miterlimit="10"/>
<path d="M350.677 64.9834C349.943 65.0801 349.352 64.4613 349.352 63.7213V60.4943C349.352 60.4357 349.369 60.3777 349.369 60.319V60.319C349.369 60.2604 349.352 60.2024 349.352 60.1437V48.9682C349.325 48.5631 349.429 48.1588 349.657 47.7794C349.886 47.4 350.235 47.0534 350.683 46.7602C351.59 46.1064 352.846 45.6802 354.217 45.5605C356.226 45.3581 358.222 45.1263 360.231 44.9092C363.064 44.6074 365.897 44.2983 368.73 43.9928L377.33 43.0618L386.076 42.1161C386.63 42.0572 387.184 42.002 387.731 41.9357C387.883 41.9203 388.023 41.8752 388.132 41.8069C388.585 41.5309 389.051 41.2586 389.498 40.9789C391.678 39.61 393.898 38.2705 396.089 36.9089C396.945 36.379 397.803 35.8515 398.663 35.3265C398.887 35.1708 399.201 35.0769 399.535 35.0653C400.039 35.0084 400.558 35.0522 401.019 35.1904C401.245 35.2715 401.428 35.392 401.547 35.537V35.537C401.759 35.7981 401.685 36.1766 401.685 36.5133V56.2471C401.708 56.9981 401.254 57.7242 400.424 58.2674C399.683 58.8278 398.673 59.2249 397.544 59.4009C396.731 59.5297 395.901 59.6033 395.076 59.7026L386.324 60.7441L378.879 61.6309L369.455 62.7349L363.129 63.4893L353.658 64.6154C352.662 64.7331 351.673 64.8546 350.677 64.9834V64.9834Z" stroke="#5845B1" stroke-miterlimit="10"/>
<path d="M433.497 43.3305C434.228 43.2257 434.822 43.8406 434.822 44.5788V47.8049C434.822 47.8635 434.805 47.9216 434.805 47.9802V47.9802C434.805 48.0388 434.822 48.0968 434.822 48.1555V59.3421C434.85 59.7471 434.746 60.1515 434.517 60.5308C434.288 60.9102 433.939 61.2569 433.491 61.5501C432.586 62.2052 431.33 62.6317 429.957 62.7497C427.949 62.9521 425.952 63.1877 423.943 63.4011L415.444 64.3174L406.845 65.23C403.9 65.5465 401.014 65.8667 398.098 66.1758C397.544 66.2347 396.991 66.2899 396.443 66.3561C396.292 66.374 396.153 66.4187 396.042 66.4849C395.589 66.7646 395.124 67.0332 394.676 67.3166C392.497 68.6818 390.276 70.0213 388.085 71.3829C387.231 71.9165 386.371 72.4428 385.511 72.969C385.284 73.1219 384.972 73.2152 384.639 73.2303C384.136 73.2835 383.618 73.2399 383.155 73.1052C382.929 73.0234 382.745 72.9023 382.627 72.7566V72.7566C382.414 72.4943 382.489 72.1147 382.489 71.777V52.0447C382.467 51.2938 382.92 50.5677 383.75 50.0244C384.491 49.4641 385.501 49.0669 386.63 48.891C387.443 48.7659 388.273 48.6886 389.098 48.5892L397.851 47.5478L405.296 46.6646L414.72 45.5606L421.046 44.8246L430.517 43.6985C431.512 43.5771 432.502 43.4557 433.497 43.3305V43.3305Z" stroke="#5845B1" stroke-miterlimit="10"/>
<path d="M350.677 102.148C349.945 102.249 349.352 101.632 349.352 100.893V97.6664C349.352 97.6079 349.368 97.5499 349.368 97.4914V97.4914C349.368 97.4328 349.352 97.3748 349.352 97.3163V86.1368C349.325 85.7318 349.429 85.3274 349.657 84.948C349.886 84.5687 350.235 84.222 350.683 83.9288C351.588 83.2737 352.845 82.8472 354.217 82.7292C356.226 82.5268 358.222 82.2913 360.231 82.0778L368.73 81.1615L377.33 80.2305C380.275 79.914 383.161 79.5938 386.076 79.2847C386.63 79.2258 387.184 79.1706 387.731 79.1007C387.883 79.0865 388.023 79.0427 388.132 78.9756C388.585 78.6959 389.051 78.4273 389.498 78.1439C391.678 76.7787 393.898 75.4355 396.089 74.096C396.943 73.5624 397.803 73.0361 398.663 72.5099C398.891 72.357 399.202 72.2636 399.535 72.2486C400.039 72.1954 400.556 72.239 401.019 72.3737C401.246 72.4555 401.429 72.5766 401.547 72.7223V72.7223C401.76 72.9846 401.685 73.3642 401.685 73.7019V93.4342C401.708 94.1851 401.254 94.9112 400.424 95.4545C399.683 96.0148 398.673 96.412 397.544 96.5879C396.731 96.713 395.901 96.7903 395.076 96.8897C392.161 97.2577 389.239 97.5815 386.324 97.9274L378.879 98.8143L369.455 99.9183L363.129 100.654L353.658 101.78C352.662 101.902 351.673 102.023 350.677 102.148V102.148Z" stroke="#5845B1" stroke-miterlimit="10"/>
<path d="M433.491 80.532C434.218 80.4115 434.822 81.0185 434.822 81.7554V84.9788C434.822 85.0362 434.804 85.093 434.804 85.1504V85.1504C434.804 85.2078 434.822 85.2646 434.822 85.322V96.5105C434.849 96.9155 434.745 97.3198 434.516 97.6992C434.288 98.0786 433.939 98.4253 433.491 98.7184C432.585 99.3724 431.328 99.7976 429.957 99.9144C427.948 100.121 425.951 100.352 423.943 100.569C421.112 100.871 418.279 101.177 415.444 101.486L406.844 102.398L398.097 103.344C397.544 103.403 396.99 103.458 396.442 103.524C396.291 103.541 396.151 103.586 396.042 103.653C395.588 103.929 395.123 104.202 394.675 104.481C392.496 105.85 390.275 107.19 388.084 108.551C387.232 109.081 386.374 109.609 385.51 110.134C385.287 110.289 384.973 110.383 384.639 110.395C384.135 110.45 383.617 110.406 383.154 110.27C382.929 110.188 382.746 110.068 382.628 109.923V109.923C382.416 109.662 382.489 109.284 382.489 108.947V89.2131C382.466 88.4632 382.919 87.7382 383.749 87.1965C384.491 86.6362 385.5 86.239 386.629 86.063C387.442 85.9342 388.273 85.8606 389.097 85.7613L397.844 84.7346L405.289 83.8477L414.713 82.7437L421.039 82.0077L430.51 80.8816C431.506 80.7639 432.495 80.6424 433.491 80.532V80.532Z" stroke="#5845B1" stroke-miterlimit="10"/>
<path d="M350.677 139.321C349.943 139.418 349.352 138.799 349.352 138.059V134.83C349.352 134.773 349.369 134.716 349.369 134.659V134.659C349.369 134.601 349.352 134.545 349.352 134.487V123.306C349.325 122.901 349.429 122.497 349.657 122.117C349.886 121.738 350.235 121.391 350.683 121.098C351.59 120.444 352.846 120.018 354.217 119.898C356.226 119.696 358.222 119.464 360.231 119.247L368.73 118.331L377.33 117.4L386.076 116.454C386.63 116.395 387.184 116.34 387.731 116.274C387.883 116.258 388.023 116.213 388.132 116.145C388.585 115.869 389.051 115.597 389.498 115.317C391.678 113.948 393.898 112.608 396.089 111.247C396.945 110.717 397.803 110.189 398.663 109.664C398.887 109.509 399.201 109.415 399.535 109.403C400.039 109.346 400.558 109.39 401.019 109.528C401.245 109.609 401.428 109.73 401.547 109.875V109.875C401.759 110.136 401.685 110.514 401.685 110.851V130.585C401.709 131.336 401.256 132.063 400.424 132.605C399.683 133.166 398.673 133.563 397.544 133.739C396.731 133.868 395.901 133.941 395.076 134.041L386.324 135.082L378.879 135.969L369.455 137.073L363.129 137.827L353.658 138.953C352.662 139.071 351.673 139.193 350.677 139.321V139.321Z" stroke="#5845B1" stroke-miterlimit="10"/>
<path d="M433.491 117.682C434.222 117.568 434.822 118.182 434.822 118.922V122.142C434.822 122.2 434.805 122.258 434.805 122.317V122.317C434.805 122.376 434.822 122.434 434.822 122.492V133.675C434.85 134.08 434.746 134.484 434.517 134.864C434.288 135.243 433.939 135.59 433.491 135.883C432.586 136.538 431.33 136.965 429.957 137.083C427.949 137.285 425.952 137.521 423.943 137.734L415.444 138.65L406.845 139.563C403.9 139.88 401.014 140.2 398.098 140.509C397.544 140.568 396.991 140.623 396.443 140.693C396.292 140.708 396.152 140.751 396.042 140.818C395.589 141.098 395.124 141.366 394.676 141.65C392.497 143.015 390.276 144.354 388.085 145.716C387.231 146.25 386.371 146.776 385.511 147.302C385.284 147.455 384.972 147.548 384.639 147.563C384.136 147.616 383.618 147.573 383.155 147.438C382.929 147.356 382.745 147.235 382.627 147.09V147.09C382.414 146.827 382.489 146.448 382.489 146.11V126.378C382.467 125.627 382.92 124.901 383.75 124.357C384.491 123.797 385.501 123.4 386.63 123.224C387.443 123.099 388.273 123.022 389.098 122.922L397.845 121.899L405.29 121.016L414.714 119.912L421.04 119.176C424.181 118.801 427.338 118.425 430.511 118.05C431.506 117.929 432.496 117.807 433.491 117.682V117.682Z" stroke="#5845B1" stroke-miterlimit="10"/>
<path d="M505.761 -22.8138C506.49 -22.924 507.087 -22.3126 507.087 -21.5759V-18.3505C507.087 -18.2919 507.069 -18.2339 507.069 -18.1752V-18.1752C507.069 -18.1166 507.087 -18.0586 507.087 -17.9999C507.087 -16.6779 507.087 -15.3581 507.087 -14.0408V-6.83172C507.116 -6.42681 507.014 -6.02235 506.786 -5.64282C506.559 -5.2633 506.21 -4.9166 505.761 -4.62373C504.853 -3.97076 503.598 -3.54472 502.227 -3.42406C500.219 -3.22166 498.216 -2.98982 496.214 -2.7727C493.38 -2.47094 490.547 -2.16183 487.714 -1.85639L479.115 -0.925371L470.368 0.0203835C469.814 0.079263 469.261 0.134459 468.713 0.200698C468.561 0.216193 468.421 0.261285 468.312 0.329511C467.859 0.605508 467.394 0.877827 466.946 1.1575C464.767 2.52645 462.54 3.86596 460.355 5.22755L457.781 6.81361C457.554 6.96573 457.242 7.05787 456.909 7.07122C456.406 7.12859 455.886 7.08477 455.425 6.94609C455.198 6.86564 455.014 6.74532 454.896 6.60008V6.60008C454.683 6.33887 454.759 5.95966 454.759 5.62274V-14.1107C454.747 -14.4827 454.851 -14.8526 455.068 -15.1993C455.284 -15.5459 455.608 -15.8625 456.02 -16.131C456.76 -16.6904 457.767 -17.0875 458.894 -17.2644C459.713 -17.3932 460.543 -17.4668 461.368 -17.5662L470.115 -18.6076L477.566 -19.4945L486.99 -20.5985L493.316 -21.3345L502.787 -22.4642C503.776 -22.582 504.772 -22.7034 505.761 -22.8138V-22.8138Z" stroke="#5845B1" stroke-miterlimit="10"/>
<path d="M422.97 35.9777C422.224 36.0891 421.616 35.4612 421.616 34.7069V31.5052C421.616 31.4478 421.633 31.391 421.633 31.3336V31.3336C421.633 31.2761 421.616 31.2194 421.616 31.1619V19.9662C421.588 19.5611 421.691 19.1566 421.92 18.7772C422.149 18.3977 422.498 18.0511 422.947 17.7582C423.85 17.1012 425.107 16.6743 426.481 16.5585C428.489 16.3524 430.492 16.1206 432.501 15.9071L441 14.9871L449.593 14.0782C452.538 13.7654 455.425 13.4452 458.346 13.1361C458.894 13.0773 459.448 13.0184 460.001 12.9521C460.151 12.9357 460.289 12.8907 460.396 12.8233C460.849 12.5473 461.321 12.275 461.768 11.9953C463.947 10.6264 466.168 9.28689 468.359 7.92531C469.215 7.39539 470.073 6.86791 470.933 6.3429C471.157 6.18721 471.47 6.09327 471.805 6.08164C472.308 6.02676 472.827 6.07045 473.289 6.20674C473.514 6.2886 473.696 6.40918 473.814 6.55405V6.55405C474.027 6.81495 473.955 7.19279 473.955 7.52931V27.2635C473.978 28.0134 473.524 28.7385 472.694 29.2801C471.952 29.8399 470.943 30.2369 469.814 30.4136C469.001 30.5424 468.165 30.616 467.34 30.7153L458.593 31.7568L451.143 32.6436L441.718 33.7476L435.393 34.4836C432.251 34.859 429.092 35.2343 425.915 35.6097C424.926 35.7275 423.936 35.8489 422.97 35.9777V35.9777Z" stroke="#5845B1" stroke-miterlimit="10"/>
<path d="M505.761 14.3396C506.493 14.2344 507.086 14.852 507.086 15.5913V18.823C507.086 18.8805 507.069 18.9373 507.069 18.9947V18.9947C507.069 19.0522 507.086 19.109 507.086 19.1664C507.086 20.4914 507.086 21.8117 507.086 23.1273V30.3327C507.116 30.7376 507.014 31.142 506.786 31.5216C506.558 31.9011 506.21 32.2478 505.761 32.5407C504.855 33.195 503.599 33.6213 502.227 33.7403C500.219 33.9464 498.216 34.1783 496.213 34.3917L487.714 35.3117L479.115 36.2427C476.17 36.5555 473.283 36.8757 470.368 37.1848C469.814 37.2437 469.261 37.2989 468.713 37.3688C468.562 37.3846 468.423 37.4282 468.312 37.4939C467.859 37.7736 467.393 38.0459 466.946 38.3256C464.766 39.6909 462.54 41.034 460.355 42.3956C459.499 42.9255 458.641 43.453 457.781 43.978C457.554 44.1309 457.242 44.2243 456.909 44.2393C456.406 44.293 455.888 44.2493 455.425 44.1142C455.198 44.0327 455.014 43.9117 454.896 43.7659V43.7659C454.683 43.5035 454.759 43.1236 454.759 42.7858V23.0537C454.747 22.6823 454.851 22.3129 455.068 21.9669C455.284 21.6208 455.608 21.3048 456.02 21.0371C456.762 20.4778 457.768 20.0798 458.894 19.9C459.713 19.7749 460.543 19.6976 461.368 19.6019L470.115 18.5605L477.566 17.6736L486.99 16.5696L493.316 15.8336L502.787 14.7076C503.776 14.5898 504.772 14.4647 505.761 14.3396V14.3396Z" stroke="#5845B1" stroke-miterlimit="10"/>
<path d="M422.971 73.1425C422.225 73.254 421.617 72.626 421.617 71.8717V68.6755C421.617 68.6169 421.634 68.5588 421.634 68.5002V68.5002C421.634 68.4416 421.617 68.3835 421.617 68.3249V57.1309C421.589 56.7259 421.693 56.3216 421.922 55.9422C422.151 55.5628 422.5 55.2161 422.948 54.923C423.854 54.2687 425.11 53.8423 426.482 53.7233C428.49 53.5209 430.493 53.289 432.501 53.0719L441.007 52.1814L449.594 51.243L458.347 50.2972C458.895 50.2384 459.448 50.1832 460.002 50.1169C460.151 50.0989 460.288 50.0542 460.397 49.9881C460.85 49.7085 461.321 49.4398 461.769 49.1565C463.948 47.7912 466.169 46.4517 468.36 45.0901C469.214 44.5565 470.074 44.0339 470.934 43.504C471.161 43.3511 471.473 43.2578 471.806 43.2428C472.309 43.1895 472.827 43.2332 473.29 43.3679C473.515 43.4503 473.698 43.5716 473.816 43.7171V43.7171C474.028 43.9792 473.955 44.3581 473.955 44.6956V64.4283C473.978 65.1793 473.525 65.9054 472.695 66.4486C471.952 67.0083 470.943 67.4054 469.815 67.5821C469.002 67.7109 468.166 67.7844 467.341 67.8838L458.594 68.9252L451.143 69.8084L441.719 70.9124L435.393 71.6484C432.252 72.0238 429.093 72.3991 425.916 72.7745C424.927 72.8959 423.937 73.0174 422.971 73.1425V73.1425Z" stroke="#5845B1" stroke-miterlimit="10"/>
<path d="M505.762 51.5076C506.494 51.4076 507.087 52.0238 507.087 52.7627V55.9893C507.087 56.048 507.069 56.106 507.069 56.1646V56.1646C507.069 56.2232 507.087 56.2813 507.087 56.3399C507.087 57.6596 507.087 58.9793 507.087 60.299V67.5081C507.117 67.913 507.015 68.3175 506.787 68.697C506.559 69.0765 506.21 69.4232 505.762 69.7161C504.854 70.3691 503.599 70.7951 502.228 70.9158C500.219 71.1182 498.217 71.35 496.214 71.5671C493.381 71.8689 490.548 72.178 487.715 72.4834L479.115 73.4145L470.368 74.3602C469.815 74.4191 469.261 74.4743 468.713 74.5405C468.562 74.556 468.421 74.6011 468.313 74.6693C467.859 74.9453 467.394 75.2177 466.946 75.4973C464.767 76.8663 462.541 78.2058 460.355 79.5674L457.781 81.1534C457.554 81.3056 457.242 81.3977 456.91 81.411C456.406 81.4684 455.887 81.4246 455.425 81.2859C455.198 81.2058 455.014 81.0856 454.895 80.9402V80.9402C454.682 80.6789 454.76 80.2994 454.76 79.9623V60.2291C454.747 59.8571 454.852 59.4872 455.068 59.1406C455.284 58.7939 455.608 58.4773 456.02 58.2088C456.761 57.6494 457.768 57.2523 458.895 57.0754C459.713 56.9466 460.544 56.873 461.368 56.7737L470.115 55.7322L477.566 54.8454L486.99 53.7414C489.099 53.4874 491.207 53.2409 493.316 53.0054L502.787 51.8756C503.777 51.7579 504.772 51.6364 505.762 51.5076V51.5076Z" stroke="#5845B1" stroke-miterlimit="10"/>
<path d="M422.97 110.313C422.225 110.426 421.616 109.799 421.616 109.045V105.844C421.616 105.786 421.633 105.73 421.633 105.672V105.672C421.633 105.615 421.616 105.558 421.616 105.501V94.3195C421.588 93.9144 421.691 93.51 421.92 93.1305C422.149 92.7511 422.498 92.4044 422.947 92.1115C423.852 91.4559 425.108 91.0293 426.481 90.9118C428.489 90.7058 430.492 90.4739 432.501 90.2605L441 89.3405L449.593 88.4131C452.538 88.1003 455.425 87.7802 458.346 87.4711C458.894 87.4122 459.448 87.3533 460.001 87.2871C460.15 87.2705 460.287 87.227 460.396 87.1619C460.849 86.8823 461.321 86.61 461.768 86.3303C463.947 84.9613 466.168 83.6218 468.359 82.2602C469.215 81.7303 470.073 81.2029 470.933 80.6778C471.157 80.5221 471.47 80.4282 471.805 80.4166C472.308 80.3634 472.826 80.407 473.289 80.5417C473.514 80.6235 473.696 80.7441 473.814 80.889V80.889C474.027 81.1499 473.955 81.5277 473.955 81.8643V101.598C473.978 102.348 473.524 103.073 472.694 103.615C471.952 104.175 470.943 104.572 469.814 104.749C469.001 104.877 468.165 104.951 467.34 105.05L458.593 106.092L451.143 106.979L441.718 108.083L435.393 108.819C432.251 109.194 429.092 109.569 425.915 109.945C424.926 110.062 423.936 110.184 422.97 110.313V110.313Z" stroke="#5845B1" stroke-miterlimit="10"/>
<path d="M505.761 88.6936C506.489 88.5813 507.086 89.1918 507.086 89.928V93.1587C507.086 93.2161 507.069 93.2729 507.069 93.3303V93.3303C507.069 93.3877 507.086 93.4445 507.086 93.5019C507.086 94.827 507.086 96.1473 507.086 97.4629V104.668C507.117 105.073 507.015 105.478 506.787 105.857C506.559 106.237 506.21 106.584 505.761 106.876C504.855 107.531 503.599 107.957 502.227 108.076C500.219 108.282 498.216 108.514 496.213 108.727L487.714 109.647L479.115 110.578C476.17 110.891 473.283 111.211 470.368 111.52C469.814 111.579 469.261 111.634 468.713 111.704C468.562 111.72 468.423 111.764 468.312 111.83C467.859 112.109 467.393 112.382 466.946 112.661C464.766 114.026 462.54 115.37 460.355 116.731C459.499 117.261 458.641 117.789 457.781 118.314C457.556 118.468 457.243 118.562 456.909 118.575C456.406 118.629 455.888 118.585 455.425 118.45C455.198 118.368 455.014 118.247 454.896 118.102V118.102C454.683 117.839 454.759 117.459 454.759 117.121V97.3893C454.747 97.0179 454.851 96.6486 455.068 96.3025C455.284 95.9565 455.608 95.6405 456.02 95.3727C456.762 94.8134 457.768 94.4154 458.894 94.2356C459.713 94.1105 460.543 94.0332 461.368 93.9375L470.115 92.8961L477.566 92.0092L486.99 90.9052L493.316 90.1692L502.787 89.0432C503.776 88.9254 504.772 88.8003 505.761 88.6936V88.6936Z" stroke="#5845B1" stroke-miterlimit="10"/>
<path d="M422.971 147.486C422.225 147.598 421.617 146.97 421.617 146.215V143.019C421.617 142.96 421.634 142.902 421.634 142.844V142.844C421.634 142.785 421.617 142.727 421.617 142.668V131.489C421.589 131.084 421.693 130.68 421.922 130.3C422.151 129.921 422.5 129.574 422.948 129.281C423.854 128.627 425.11 128.201 426.482 128.082C428.49 127.879 430.493 127.647 432.501 127.43C435.334 127.128 438.168 126.819 441.001 126.514L449.594 125.583L458.347 124.637C458.895 124.578 459.448 124.523 460.002 124.457C460.151 124.439 460.288 124.394 460.397 124.328C460.85 124.048 461.321 123.78 461.769 123.496C463.948 122.131 466.169 120.792 468.36 119.43L470.934 117.844C471.161 117.691 471.473 117.598 471.806 117.583C472.309 117.529 472.827 117.573 473.29 117.708C473.515 117.79 473.698 117.911 473.816 118.057V118.057C474.028 118.319 473.955 118.698 473.955 119.035V138.768C473.978 139.519 473.525 140.245 472.695 140.788C471.952 141.348 470.943 141.745 469.815 141.922C469.002 142.051 468.166 142.124 467.341 142.224L458.594 143.265L451.143 144.152C448.002 144.522 444.861 144.89 441.719 145.256L435.393 145.992C432.252 146.367 429.093 146.743 425.916 147.118C424.927 147.239 423.937 147.361 422.971 147.486V147.486Z" stroke="#5845B1" stroke-miterlimit="10"/>
<path d="M505.761 125.864C506.489 125.754 507.086 126.365 507.086 127.102V130.327C507.086 130.386 507.069 130.444 507.069 130.503V130.503C507.069 130.561 507.086 130.619 507.086 130.678C507.086 132.002 507.086 133.323 507.086 134.637V141.846C507.116 142.251 507.014 142.655 506.786 143.035C506.558 143.414 506.21 143.761 505.761 144.054C504.853 144.707 503.598 145.133 502.227 145.254C500.219 145.456 498.216 145.688 496.213 145.905C493.38 146.207 490.547 146.516 487.714 146.821L479.115 147.752L470.368 148.698C469.814 148.757 469.261 148.812 468.713 148.878C468.562 148.896 468.422 148.94 468.312 149.007C467.859 149.283 467.393 149.556 466.946 149.835C464.766 151.204 462.54 152.544 460.355 153.905L457.781 155.491C457.553 155.643 457.242 155.736 456.909 155.749C456.406 155.806 455.887 155.763 455.425 155.628C455.198 155.546 455.014 155.425 454.896 155.279V155.279C454.683 155.017 454.759 154.637 454.759 154.299V134.567C454.746 134.195 454.851 133.825 455.068 133.478C455.284 133.132 455.607 132.815 456.02 132.547C456.76 131.987 457.767 131.59 458.894 131.413C459.713 131.284 460.543 131.211 461.368 131.112L470.115 130.07L477.566 129.183L486.99 128.079L493.316 127.343L502.787 126.213C503.776 126.096 504.772 125.974 505.761 125.864V125.864Z" stroke="#5845B1" stroke-miterlimit="10"/>
<path d="M489.546 27.7909C488.801 27.908 488.192 27.2783 488.192 26.5234V23.3222C488.192 23.2647 488.209 23.2079 488.209 23.1505V23.1505C488.209 23.093 488.192 23.0362 488.192 22.9788V11.7978C488.165 11.3927 488.268 10.9884 488.497 10.609C488.726 10.2296 489.075 9.88298 489.523 9.5898C490.428 8.93417 491.684 8.50755 493.057 8.39012C495.065 8.18773 497.068 7.95222 499.077 7.73879L507.576 6.82248L516.169 5.88775C519.114 5.57495 522.006 5.2548 524.922 4.94568C525.476 4.8868 526.024 4.8316 526.577 4.76168C526.726 4.74671 526.864 4.70298 526.972 4.63658C527.431 4.3569 527.897 4.08826 528.344 3.8049C530.524 2.43963 532.744 1.09644 534.935 -0.265145C535.787 -0.79506 536.645 -1.32254 537.509 -1.84755C537.736 -2.00042 538.048 -2.09377 538.381 -2.10881C538.884 -2.16202 539.402 -2.1184 539.865 -1.98371C540.09 -1.90124 540.273 -1.78 540.391 -1.63449V-1.63449C540.604 -1.37234 540.531 -0.993444 540.531 -0.655915V19.0768C540.554 19.8266 540.1 20.5517 539.27 21.0934C538.528 21.6541 537.519 22.0524 536.39 22.2305C535.577 22.3556 534.741 22.4329 533.916 22.5322L525.169 23.57L517.719 24.4569L508.294 25.5609L501.969 26.2969C498.827 26.6722 495.668 27.0476 492.492 27.4229C491.502 27.5407 490.512 27.6658 489.546 27.7909V27.7909Z" stroke="#5845B1" stroke-miterlimit="10"/>
<path d="M572.336 6.19762C573.058 6.07118 573.661 6.6751 573.661 7.40843V10.637C573.661 10.6944 573.644 10.7512 573.644 10.8086V10.8086C573.644 10.866 573.661 10.9228 573.661 10.9802C573.661 12.3052 573.661 13.6256 573.661 14.9412V22.1723C573.69 22.5772 573.588 22.9816 573.36 23.361C573.132 23.7405 572.784 24.0872 572.336 24.3803C571.43 25.0338 570.173 25.4589 568.802 25.5763C566.794 25.7824 564.791 26.0142 562.788 26.2314C559.957 26.5331 557.124 26.8386 554.289 27.1477L545.69 28.0787C542.772 28.3952 539.856 28.7092 536.943 29.0208C536.389 29.0796 535.835 29.1385 535.288 29.2048C535.136 29.2203 534.996 29.2653 534.887 29.3336C534.434 29.6096 533.968 29.8819 533.521 30.1616C531.341 31.5305 529.115 32.87 526.93 34.2316C526.078 34.7615 525.22 35.289 524.356 35.814C524.131 35.969 523.818 36.0629 523.484 36.0753C522.981 36.1304 522.462 36.0867 522 35.9502C521.773 35.8693 521.59 35.749 521.472 35.6038V35.6038C521.259 35.3427 521.334 34.9638 521.334 34.627V14.8934C521.322 14.5219 521.426 14.1526 521.643 13.8066C521.859 13.4605 522.183 13.1445 522.595 12.8767C523.335 12.3173 524.342 11.9202 525.469 11.7433C526.288 11.6145 527.118 11.5409 527.943 11.4416L536.69 10.4001L544.14 9.51325L553.565 8.40926L559.89 7.67327L569.362 6.5472C570.351 6.42944 571.347 6.30802 572.336 6.19762V6.19762Z" stroke="#5845B1" stroke-miterlimit="10"/>
<path d="M489.546 64.9834C488.796 65.0829 488.192 64.4488 488.192 63.6917V60.4943C488.192 60.4357 488.209 60.3777 488.209 60.319V60.319C488.209 60.2604 488.192 60.2024 488.192 60.1437V48.9682C488.165 48.5631 488.268 48.1588 488.497 47.7794C488.726 47.4 489.075 47.0534 489.523 46.7602C490.429 46.1059 491.685 45.6796 493.057 45.5605C495.065 45.3581 497.068 45.1263 499.077 44.9092C501.91 44.6074 504.743 44.2983 507.576 43.9928L516.169 43.0618L524.922 42.1161C525.476 42.0572 526.024 42.002 526.577 41.9357C526.727 41.9193 526.865 41.8743 526.972 41.8069C527.431 41.5309 527.897 41.2586 528.344 40.9789C530.524 39.61 532.744 38.2705 534.935 36.9089C535.787 36.379 536.645 35.8515 537.509 35.3265C537.733 35.1708 538.046 35.0769 538.381 35.0653C538.884 35.0084 539.404 35.0522 539.865 35.1904C540.09 35.2722 540.272 35.3928 540.39 35.5377V35.5377C540.603 35.7986 540.531 36.1764 540.531 36.5129V56.2472C540.553 56.9981 540.1 57.7242 539.27 58.2675C538.528 58.8272 537.519 59.2242 536.39 59.4009C535.577 59.5297 534.741 59.6033 533.916 59.7026L525.169 60.7441L517.719 61.6309L508.294 62.7349L501.969 63.4893C498.827 63.8598 495.668 64.2351 492.492 64.6154C491.502 64.7332 490.512 64.8546 489.546 64.9834V64.9834Z" stroke="#5845B1" stroke-miterlimit="10"/>
<path d="M572.336 43.3475C573.063 43.2332 573.662 43.8428 573.662 44.5785V47.8034C573.662 47.8621 573.644 47.9201 573.644 47.9787V47.9787C573.644 48.0374 573.662 48.0954 573.662 48.154C573.662 49.4784 573.662 50.7982 573.662 52.1132V59.3406C573.691 59.7455 573.589 60.15 573.361 60.5295C573.134 60.9091 572.785 61.2558 572.336 61.5486C571.43 62.2029 570.174 62.6292 568.802 62.7483C566.794 62.9507 564.791 63.1862 562.789 63.3997L554.289 64.316L545.69 65.247C542.745 65.5635 539.859 65.8836 536.943 66.1927C536.389 66.2516 535.836 66.3068 535.288 66.3731C535.137 66.3901 534.997 66.435 534.887 66.5019C534.434 66.7815 533.969 67.0502 533.521 67.3335C531.342 68.6988 529.115 70.0383 526.93 71.3999C526.076 71.9335 525.216 72.4597 524.356 72.986C524.128 73.1382 523.817 73.2315 523.484 73.2472C522.981 73.3007 522.463 73.257 522 73.1221C521.773 73.0407 521.589 72.9197 521.471 72.7739V72.7739C521.258 72.5115 521.334 72.1316 521.334 71.7937V52.0616C521.322 51.6897 521.426 51.3198 521.643 50.9731C521.859 50.6264 522.183 50.3098 522.595 50.0414C523.335 49.4819 524.342 49.0848 525.469 48.9079C526.288 48.7828 527.118 48.7055 527.943 48.6062L536.69 47.5647L544.141 46.6815L553.565 45.5775L559.891 44.8416L569.362 43.7155C570.351 43.594 571.347 43.4726 572.336 43.3475V43.3475Z" stroke="#5845B1" stroke-miterlimit="10"/>
<path d="M489.546 102.148C488.797 102.252 488.192 101.62 488.192 100.864V97.6664C488.192 97.6079 488.208 97.5499 488.208 97.4914V97.4914C488.208 97.4328 488.192 97.3748 488.192 97.3163V86.1368C488.165 85.7318 488.268 85.3274 488.497 84.948C488.726 84.5687 489.075 84.222 489.523 83.9288C490.428 83.2732 491.684 82.8466 493.057 82.7292C495.065 82.5268 497.068 82.2912 499.077 82.0778L507.576 81.1615L516.169 80.2305C519.114 79.914 522.006 79.5938 524.922 79.2847C525.476 79.2258 526.024 79.1706 526.577 79.1007C526.726 79.0857 526.864 79.042 526.972 78.9756C527.431 78.6959 527.897 78.4273 528.344 78.1439C530.524 76.7787 532.744 75.4355 534.935 74.096C535.789 73.5624 536.649 73.0361 537.509 72.5099C537.736 72.357 538.048 72.2636 538.381 72.2486C538.884 72.1954 539.402 72.239 539.865 72.3737C540.09 72.4562 540.273 72.5774 540.391 72.7229V72.7229C540.604 72.9851 540.531 73.364 540.531 73.7015V93.4342C540.553 94.1851 540.1 94.9112 539.27 95.4545C538.528 96.0142 537.519 96.4113 536.39 96.5879C535.577 96.713 534.741 96.7903 533.916 96.8897L525.169 97.9274L517.719 98.8143L508.294 99.9183L501.969 100.654C498.827 101.03 495.668 101.405 492.492 101.78C491.502 101.902 490.512 102.023 489.546 102.148V102.148Z" stroke="#5845B1" stroke-miterlimit="10"/>
<path d="M572.336 80.5357C573.059 80.4145 573.661 81.017 573.661 81.7498V84.9788C573.661 85.0362 573.644 85.093 573.644 85.1504V85.1504C573.644 85.2078 573.661 85.2646 573.661 85.322C573.661 86.647 573.661 87.9674 573.661 89.283V96.5105C573.691 96.9153 573.588 97.3197 573.361 97.6992C573.133 98.0787 572.784 98.4255 572.336 98.7184C571.43 99.3719 570.173 99.797 568.802 99.9144C566.794 100.121 564.791 100.352 562.788 100.569C559.957 100.871 557.124 101.177 554.289 101.486L545.69 102.417L536.943 103.363C536.389 103.421 535.835 103.477 535.288 103.543C535.136 103.558 534.996 103.603 534.887 103.672C534.434 103.948 533.968 104.22 533.521 104.5C531.341 105.869 529.115 107.208 526.93 108.57C526.078 109.1 525.22 109.627 524.356 110.152C524.131 110.307 523.818 110.401 523.484 110.413C522.981 110.469 522.462 110.425 522 110.288C521.773 110.207 521.59 110.087 521.472 109.942V109.942C521.259 109.681 521.334 109.302 521.334 108.965V89.2315C521.322 88.86 521.426 88.4907 521.643 88.1447C521.859 87.7986 522.183 87.4826 522.595 87.2149C523.335 86.6554 524.342 86.2583 525.469 86.0814C526.288 85.9526 527.118 85.879 527.943 85.7797L536.69 84.7382L544.14 83.8514L553.565 82.7474L559.89 82.0114L569.362 80.8853C570.351 80.7676 571.347 80.6461 572.336 80.5357V80.5357Z" stroke="#5845B1" stroke-miterlimit="10"/>
<path d="M489.546 139.321C488.796 139.421 488.192 138.787 488.192 138.03V134.83C488.192 134.773 488.209 134.716 488.209 134.659V134.659C488.209 134.601 488.192 134.545 488.192 134.487V123.306C488.165 122.901 488.268 122.497 488.497 122.117C488.726 121.738 489.075 121.391 489.523 121.098C490.429 120.444 491.685 120.017 493.057 119.898C495.065 119.696 497.068 119.464 499.077 119.247C501.91 118.945 504.743 118.636 507.576 118.331L516.169 117.4L524.922 116.454C525.476 116.395 526.024 116.34 526.577 116.274C526.727 116.257 526.865 116.212 526.972 116.145C527.431 115.869 527.897 115.597 528.344 115.317C530.524 113.948 532.744 112.608 534.935 111.247C535.787 110.717 536.645 110.189 537.509 109.664C537.733 109.509 538.046 109.415 538.381 109.403C538.884 109.346 539.404 109.39 539.865 109.528C540.09 109.61 540.272 109.731 540.39 109.876V109.876C540.603 110.136 540.531 110.514 540.531 110.851V130.585C540.555 131.336 540.101 132.063 539.27 132.605C538.528 133.165 537.519 133.562 536.39 133.739C535.577 133.868 534.741 133.941 533.916 134.041L525.169 135.082L517.719 135.969L508.294 137.073L501.969 137.827C498.827 138.203 495.668 138.578 492.492 138.953C491.502 139.071 490.512 139.193 489.546 139.321V139.321Z" stroke="#5845B1" stroke-miterlimit="10"/>
<path d="M572.336 117.682C573.064 117.57 573.662 118.18 573.662 118.916V122.141C573.662 122.2 573.644 122.258 573.644 122.317V122.317C573.644 122.375 573.662 122.433 573.662 122.492C573.662 123.816 573.662 125.136 573.662 126.451V133.675C573.691 134.08 573.589 134.484 573.361 134.864C573.134 135.243 572.785 135.59 572.336 135.883C571.43 136.537 570.174 136.964 568.802 137.083C566.794 137.285 564.791 137.521 562.789 137.734L554.289 138.65L545.69 139.581C542.745 139.898 539.859 140.218 536.943 140.527C536.389 140.586 535.836 140.641 535.288 140.711C535.137 140.725 534.996 140.769 534.887 140.836C534.434 141.116 533.969 141.385 533.521 141.668C531.342 143.033 529.115 144.373 526.93 145.734C526.076 146.268 525.216 146.794 524.356 147.32C524.128 147.473 523.817 147.566 523.484 147.582C522.981 147.635 522.463 147.591 522 147.456C521.773 147.375 521.589 147.254 521.471 147.108V147.108C521.258 146.846 521.334 146.466 521.334 146.128V126.396C521.322 126.024 521.426 125.654 521.643 125.307C521.859 124.961 522.183 124.644 522.595 124.376C523.335 123.816 524.342 123.419 525.469 123.242C526.288 123.117 527.118 123.04 527.943 122.941L536.69 121.899L544.141 121.016L553.565 119.912L559.891 119.176C563.032 118.801 566.189 118.425 569.362 118.05C570.351 117.928 571.347 117.807 572.336 117.682V117.682Z" stroke="#5845B1" stroke-miterlimit="10"/>
</g>
</g>
<defs>
<filter id="filter0_d_930_2766" x="0" y="0" width="559" height="136" filterUnits="userSpaceOnUse" color-interpolation-filters="sRGB">
<feFlood flood-opacity="0" result="BackgroundImageFix"/>
<feColorMatrix in="SourceAlpha" type="matrix" values="0 0 0 0 0 0 0 0 0 0 0 0 0 0 0 0 0 0 127 0" result="hardAlpha"/>
<feOffset dy="4"/>
<feGaussianBlur stdDeviation="2"/>
<feComposite in2="hardAlpha" operator="out"/>
<feColorMatrix type="matrix" values="0 0 0 0 0 0 0 0 0 0 0 0 0 0 0 0 0 0 0.25 0"/>
<feBlend mode="normal" in2="BackgroundImageFix" result="effect1_dropShadow_930_2766"/>
<feBlend mode="normal" in="SourceGraphic" in2="effect1_dropShadow_930_2766" result="shape"/>
</filter>
</defs>
</svg>
