<svg width="805" height="225" viewBox="0 0 805 225" fill="none" xmlns="http://www.w3.org/2000/svg">
<rect x="780.655" y="178.517" width="17.8385" height="11.8137" transform="rotate(-111 780.655 178.517)" fill="#4BC8EF" fill-opacity="0.9"/>
<rect x="570.53" y="78.5771" width="30.6516" height="16.939" transform="rotate(-26 570.53 78.5771)" fill="#9DED1A" fill-opacity="0.65"/>
<rect x="519.281" y="47.8242" width="28.089" height="16.939" transform="rotate(71 519.281 47.8242)" fill="#FFED36" fill-opacity="0.85"/>
<rect x="534.643" y="106.766" width="35.7769" height="14.3764" transform="rotate(31 534.643 106.766)" fill="#9DED1A" fill-opacity="0.6"/>
<rect x="106.688" y="50.3828" width="30.6516" height="14.3764" transform="rotate(14 106.688 50.3828)" fill="#03A3F5" fill-opacity="0.6"/>
<rect x="644.846" y="163.143" width="40.9021" height="16.939" transform="rotate(-167 644.846 163.143)" fill="#DCBCFA" fill-opacity="0.85"/>
<rect x="283.514" y="134.956" width="43.4648" height="11.8137" transform="rotate(-87 283.514 134.956)" fill="#FF21FB" fill-opacity="0.65"/>
<circle cx="112.873" cy="125.897" r="8.93167" fill="#03A3F5"/>
<circle cx="217.382" cy="76.7768" r="8.0385" fill="#FC9E1C" fill-opacity="0.75"/>
<circle cx="440.673" cy="135.725" r="2.6795" fill="#4BC8EF" fill-opacity="0.35"/>
<circle cx="416.557" cy="91.9552" r="5.359" fill="#4BC8EF" fill-opacity="0.75"/>
<circle cx="754.175" cy="213.432" r="7.14534" fill="#FC9E1C" fill-opacity="0.9"/>
<ellipse cx="35.1773" cy="86.5992" rx="4.46584" ry="5.359" fill="#FFED36" fill-opacity="0.85"/>
<path d="M174.644 105.559L183.668 108.146L176.915 114.668L174.644 105.559Z" fill="#F62584"/>
<path d="M258.059 7.0401L267.317 6.71679L272.226 14.573L267.877 22.7526L258.619 23.0759L253.71 15.2196L258.059 7.0401Z" fill="#9AF5FC"/>
<path d="M61.7336 167.134L61.4661 159.473L69.1264 159.206L69.3939 166.866L61.7336 167.134Z" fill="#FC9E1C" fill-opacity="0.85"/>
<path d="M205.533 223.588L210.835 222.461L214.461 226.489L212.787 231.644L207.485 232.771L203.858 228.743L205.533 223.588Z" fill="#F62584" fill-opacity="0.35"/>
<path d="M459.803 46.821L466.188 57.447L458.055 66.8029L446.644 61.9592L447.724 49.6097L459.803 46.821Z" fill="#755FFE" fill-opacity="0.75"/>
<path d="M682.585 148.792L691.976 141.97L693.189 153.513L682.585 148.792Z" fill="#BA3E03" fill-opacity="0.45"/>
<path d="M272.972 42.9793L265.192 37.7317L267.779 28.7112L277.157 28.3837L280.367 37.2018L272.972 42.9793Z" fill="#480CA7" fill-opacity="0.6"/>
<path d="M83.4309 49.073L74.2978 42.4374L80.9334 33.3043L90.0664 39.9399L83.4309 49.073Z" fill="#BA3E03" fill-opacity="0.45"/>
<path d="M101.1 195.199L101.964 182.833L113.993 179.834L120.562 190.347L112.594 199.843L101.1 195.199Z" fill="#480CA7"/>
<path d="M784.668 102.693L797.483 93.0369L799.438 108.963L784.668 102.693Z" fill="#FF21FB" fill-opacity="0.45"/>
<path d="M752.283 101.388L751.905 106.794L747.034 109.17L742.54 106.139L742.918 100.733L747.79 98.3567L752.283 101.388Z" fill="#9DED1A" fill-opacity="0.65"/>
<path d="M168.823 79.4641L168.621 91.0693L158.672 85.0913L168.823 79.4641Z" fill="#9DED1A"/>
<path d="M22.6165 199.044L15.0448 195.878L7.71241 199.565L10.8788 191.993L7.19195 184.661L14.7637 187.827L22.0961 184.14L18.9297 191.712L22.6165 199.044Z" fill="#FC9E1C" fill-opacity="0.9"/>
<path d="M312.725 93.1496L310.822 86.1955L304.304 83.1136L311.258 81.2103L314.34 74.6923L316.243 81.6465L322.762 84.7284L315.807 86.6316L312.725 93.1496Z" fill="#03A3F5" fill-opacity="0.6"/>
<path d="M289.28 150.744L283.001 149.285L281.34 155.515L279.463 149.347L273.237 151.024L277.64 146.314L273.076 141.761L279.356 143.219L281.016 136.99L282.894 143.157L289.119 141.481L284.716 146.191L289.28 150.744Z" fill="#BA3E03" fill-opacity="0.6"/>
<path d="M217.74 132.621L214.32 134.211L215.798 137.681L212.711 135.513L210.445 138.529L210.778 134.772L207.034 134.317L210.454 132.727L208.976 129.257L212.063 131.424L214.329 128.409L213.996 132.166L217.74 132.621Z" fill="#FC9E1C" fill-opacity="0.6"/>
<path d="M205.784 82.1518L210.161 85.9568L215.132 82.9697L212.866 88.3084L217.243 92.1133L211.465 91.6078L209.199 96.9465L207.895 91.2954L202.117 90.79L207.088 87.8029L205.784 82.1518Z" fill="#480CA7" fill-opacity="0.6"/>
<path d="M730.862 160.806L723.42 156.51L717.035 162.259L718.821 153.855L711.38 149.558L719.925 148.66L721.712 140.255L725.207 148.105L733.752 147.207L727.367 152.956L730.862 160.806Z" fill="#F62584"/>
<path d="M313.465 18.148L310.8 24.8472L314.151 31.2312L307.452 28.5661L301.068 31.9168L303.733 25.2176L300.382 18.8336L307.081 21.4988L313.465 18.148Z" fill="#FC9E1C" fill-opacity="0.6"/>
<path d="M193.52 105.577L189.18 102.683L184.159 104.094L187.053 99.7547L185.642 94.7337L189.981 97.627L195.002 96.2162L192.109 100.556L193.52 105.577Z" fill="#F62584" fill-opacity="0.85"/>
<path d="M183.72 225.646L187.756 228.369L191.593 225.371L190.251 230.051L194.287 232.774L189.421 232.944L188.079 237.624L186.414 233.049L181.548 233.219L185.385 230.221L183.72 225.646Z" fill="#F62584"/>
</svg>
